<?xml version="1.0" encoding="utf-8"?>
<!-- Generator: Adobe Illustrator 26.3.1, SVG Export Plug-In . SVG Version: 6.00 Build 0)  -->
<svg version="1.1" id="圖層_1" xmlns="http://www.w3.org/2000/svg" xmlns:xlink="http://www.w3.org/1999/xlink" x="0px" y="0px"
	 viewBox="0 0 1024 1024" style="enable-background:new 0 0 1024 1024;" xml:space="preserve">
<style type="text/css">
	.st0{fill:url(#SVGID_1_);}
	.st1{fill:url(#SVGID_00000155114601174875048090000009663434273384892034_);}
	.st2{fill:url(#SVGID_00000099632031672242903440000016172621882835414169_);}
	.st3{fill:url(#SVGID_00000044892091744849506440000010067265574214428544_);}
	.st4{fill:url(#SVGID_00000077313016680578549610000007600337361223160495_);}
	.st5{fill:url(#SVGID_00000039132666264162497590000009885085093944565673_);}
	.st6{fill:url(#SVGID_00000061468426150352237150000004455971914868783517_);}
	.st7{fill:url(#SVGID_00000090264299935439746890000013952332811608718508_);}
	.st8{fill:url(#SVGID_00000144327403204940950930000010308199628653450160_);}
	.st9{fill:url(#SVGID_00000026846464467861604820000009440581082765703838_);}
	.st10{fill:url(#SVGID_00000179640831798527269820000006008704380632107181_);}
	.st11{fill:url(#SVGID_00000116225182126040476900000007862641947307010714_);}
	.st12{fill:url(#SVGID_00000058584892626984809960000000997708873705871017_);}
</style>
<g>
	
		<linearGradient id="SVGID_1_" gradientUnits="userSpaceOnUse" x1="41.1262" y1="496.9408" x2="911.6139" y2="496.9408" gradientTransform="matrix(1 0 0 -1 0 1024)">
		<stop  offset="0" style="stop-color:#FF76AB"/>
		<stop  offset="0.3553" style="stop-color:#D5A9FF"/>
		<stop  offset="0.6598" style="stop-color:#FFE19F"/>
		<stop  offset="1" style="stop-color:#AEF7FF"/>
	</linearGradient>
	<path class="st0" d="M112.8,524.3c-2,1.5-3.9,0.7-5.7-0.1c-6.9-3.1-13.8-6.2-20.7-9.3c-4-1.8-4.5-4.5-2.6-8.1
		c6-11.4,11.9-22.8,17.8-34.3c2.2-4.2,5-5.7,9.4-3c6.4,4,13,7.8,19.4,11.6c2.5,1.5,3.6,3.4,2.1,6.3c-6.2,11.6-12.3,23.3-18.4,34.9
		C113.8,523.2,113.2,523.8,112.8,524.3z M172.2,379.6c-3.2,3.1-3.7,5.9,0,9.1c5.3,4.6,10.4,9.4,15.3,14.3c3.6,3.6,6.3,3.1,9.8-0.4
		c8.1-8.1,16.6-15.8,25-23.5c3.5-3.2,4.2-6.2,0.7-9.9c-3.8-4.1-7.3-8.4-10.7-12.9c-4.3-5.5-8.6-8.4-14.5-1.9
		C189.2,362.8,180.7,371.3,172.2,379.6z M70.9,764.3c-8.3,0.9-16.6,1.9-25,2.9c-3.8,0.5-4.2,3.1-3.7,6.2c2.3,12.9,4.6,25.8,6.9,38.8
		c0.9,4.8,3.5,6.5,8.4,5.3c6.5-1.7,13-3.4,19.6-4.6c5.4-1,6.6-3.7,5.5-8.9c-2.3-10.6-4-21.4-6-32.1c-0.4-1.9-0.8-3.8-1.1-5.1
		C74.3,764.3,72.5,764.1,70.9,764.3z M45.7,665.2c7.2,0.8,14.5,1.4,21.7,2.3c4.9,0.6,7-1.3,7.7-6.3c1.5-11.4,3.2-22.7,5.2-34
		c0.8-4.7-0.2-7.5-5.3-8.4c-6.9-1.2-13.7-2.7-20.5-4.2c-4-0.9-6.4,0.1-7.2,4.5c-2.5,13.2-5.7,26.2-6.1,39.7c0,1.7-0.5,3.4,1.2,5.3
		C43.1,664.5,44.4,665.1,45.7,665.2z M313.3,316.9c7.3-3.6,14.6-7.2,22-10.4c17.6-7.7,15.5-5.1,8.9-21.1c-1.4-3.4-2.7-6.8-3.9-10.2
		c-1.6-4.6-4.1-6.2-8.9-3.9c-11.1,5.3-22.3,10.5-33.6,15.5c-5.2,2.3-5.6,5.7-3.2,10.2c3.2,5.9,6.4,11.8,10.6,19.6
		C306.3,319.2,309.4,318.9,313.3,316.9z M886.1,435.4c9.4-7,9.6-7.3,2.7-16.3c-6.5-8.4-13.5-16.4-20.2-24.6
		c-3.1-3.8-6.5-4.1-10.1-1.1c-4.5,3.8-8.6,7.9-13.2,11.7c-5.1,4.1-5,8.4-0.8,12.8c5.3,5.4,10.2,11.1,14.6,17.3
		c9.4,13.1,9.5,13.1,22.9,3.3C883.4,437.4,884.7,436.4,886.1,435.4z M448.4,273.2c12.5-1.3,25.1-2.6,37.6-3.8c4-0.4,5.1-2.8,4.9-6.4
		c-0.5-7.3-1.1-14.5-1.4-21.8c-0.2-4.1-2.2-5.3-6-4.9c-13.1,1.4-26.2,2.6-39.3,4c-2.2,0.2-5.4,0.6-5.1,3.3c1,9.4,2.6,18.8,3.7,26.8
		C445,273.3,446.7,273.3,448.4,273.2z M593.8,275.7c11.7,2.8,23.5,5.5,35.2,8.2c3.6,0.8,5.1-1.1,6-4.2c1.9-6.7,3.9-13.5,6.1-20.1
		c1.4-4.4,0.4-6.8-4.4-7.9c-9-2-17.9-4.7-27-6.4c-20.1-3.6-16.5-4.5-19.8,13.5c-0.6,3.3-1.1,6.6-1.5,10c-0.2,1.7-0.3,3.4,1.2,5.2
		C590.7,274.4,592.2,275.3,593.8,275.7z M778.8,316c-8.8-5.5-17.5-11.1-26.5-16.3c-10.7-6.2-10.8-6-16.7,5.3c-2.1,4-4.1,8-6.5,11.7
		c-2.8,4.4-1.7,7.1,2.7,9.4c4.9,2.6,9.7,5.5,14.5,8.4c21.6,13.3,21.6,13.3,34.8-8.5c0.6-1,1.1-1.9,1.6-2.9c0.8-1.7,0.7-3.2-1-5.1
		C781,317.7,780,316.8,778.8,316z M96.7,548c-2.6-0.5-3.3,2.7-4,4.7c-4,12-7.8,24-11.8,35.9c-1.3,4.1-0.3,6.2,4.1,7.2
		c6.8,1.6,13.6,3.4,20.3,5.4c5.2,1.6,7.6-0.3,9.2-5.3c3.2-10.7,6.9-21.3,10.4-31.9c0.6-1.9,1.6-3.7-0.6-6.2
		C115.5,554.9,106.6,550,96.7,548z M70.6,739.5c7-0.4,14-1.1,21-1.1c6,0,7.6-2.7,7.3-8.3c-0.5-9.8-0.6-19.6-0.3-29.4
		c0.2-6.2-2-8.5-8.2-8.3c-6.1,0.3-12.3-0.3-18.4-0.8c-5.3-0.4-7.9,1.5-7.8,7c0.2,11.8,0.2,23.5,0.4,35.3c0,1.4,0.3,2.7,0.4,3.7
		C66.7,739.9,68.7,739.6,70.6,739.5z M254.5,342.8c-1.6,1.2-3.2,2.3-4.7,3.5c-8.2,6.1-8.5,7.2-2.1,15.2c3.5,4.4,7.4,8.4,10.9,12.8
		c2.6,3.2,5.3,3.6,8.7,1.3c8.4-5.6,16.8-11.2,25.3-16.6c4.7-3,5.7-6.5,2.8-11.3c-3.3-5.5-6.6-11.1-9.9-16.6
		c-2.2-3.8-5.1-4.9-9.1-2.3c-7.3,4.7-14.7,9.3-22,13.9C254.4,342.7,254.5,342.8,254.5,342.8z M412.3,272.8
		c-12.1,2.5-23.9,5.9-35.6,9.7c-4.6,1.5-5.2,4.3-3.8,8.4c2.2,6.3,4.3,12.7,6.2,19.2c1.3,4.2,3.5,5.9,8.1,4.5
		c10.5-3.1,21-5.9,31.5-8.9c2.1-0.6,5.3-1.1,4.9-3.8c-1.5-9.4-3.6-18.6-5.1-26.4C416.2,272.1,414.3,272.4,412.3,272.8z M174,423.5
		c-3.3-2.7-5.6-1-7.7,1.8c-7.2,9.3-14.3,18.6-21.5,27.9c-2.7,3.5-2.8,6.5,1.3,9.1c6.1,3.9,12.2,7.9,18.2,12.1c3.5,2.4,6,1.9,8.5-1.5
		c6.3-8.5,12.8-16.9,19.2-25.4c1.9-2.6,3.6-5.2,0.7-8.3C186.5,433.9,180.3,428.6,174,423.5z M702,303.1c-11.9-5.8-24.2-10.5-36.6-15
		c-2.5-0.9-4.6-0.4-5.5,2.2c-2.8,8.5-9.4,16.7-7.4,25.3c1.4,6.3,11.3,5.7,17.2,8.7c0.5,0.3,1,0.4,1.6,0.6c23.2,9.7,23.9,9.4,32-14.7
		c0.4-1.1,0.9-2.1,1-3.2c0.1-1-0.3-2.1-0.5-2.8C702.9,303.8,702.5,303.4,702,303.1z M865.7,489.3c5.7,8.3,10.5,17.1,15.3,26
		c2,3.7,4.7,4.6,8.3,2.9c6.3-3.1,12.5-6.2,18.7-9.5c3.1-1.6,4.7-4.3,2.8-7.7c-5.8-10.2-11.7-20.3-17.7-30.3
		c-2.2-3.7-5.2-4.7-9.2-2.2c-4.5,2.8-9.1,5.4-13.3,7.8C863.2,481.4,862,483.9,865.7,489.3z M139.5,539.4c18.4,8.4,18.4,8.4,27.5-9.4
		c11.4-22.2,11.3-22.1-11.2-34c-4.9-2.6-8.2-2.5-10.9,2.8c-4.8,9.5-9.8,18.9-14.7,28.3c-1.1,2.2-2.3,4.6,0.2,7.7
		C133,536.1,136.2,537.9,139.5,539.4z M113.8,804.1c19.2-4.4,19.5-4.6,15.3-23.5c-1.7-7.4,1.2-17.7-5.8-21.6c-6.4-3.5-15.2,1-23,1.3
		c-0.6,0-1.1,0.2-1.7,0.2c-5,0.3-6.9,3-6,7.8c1.9,10.7,3.9,21.4,5.9,32.1c0.3,1.4,0.8,2.7,1.3,4.3
		C104.5,808.3,109.3,805.1,113.8,804.1z M794.8,360.1c-3-2.4-5.7-1.6-7.9,1.3c-4.1,5.3-8.3,10.6-12.5,15.9c-2.8,3.5-2.8,6.3,0.9,9.3
		c7.7,6.5,15.3,13.2,22.7,20c3.7,3.4,6.8,3.3,10.1-0.2c4.7-4.8,9.4-9.6,14.1-14.5c2.2-2.3,2.9-4.8,0.3-7.4
		C814.1,375.6,804.5,367.8,794.8,360.1z M209.2,414c-4,3.8-3.4,7,0.6,10.5c4.6,4.1,9.2,8.2,13.4,12.7c4,4.3,7.2,4,11.2,0
		c6.5-6.5,13.2-12.9,20.1-19c4.3-3.8,4.7-7.2,0.9-11.4c-3.6-3.9-7.4-7.7-10.4-12c-4.3-6.1-8.4-8.1-14.1-1.9
		C223.6,399.9,216.5,407,209.2,414z M554.2,263.2c-9.2-0.7-18.4-1.3-27.6-1.6c-10.8-0.4-10.8-0.2-10.9,11
		c-0.2,21.5-0.2,21.5,21.5,22.8c23.3,1.3,25.3-0.5,25.1-24.5c0-1.9-0.4-3.8-0.6-5.4C559.3,263.4,556.7,263.3,554.2,263.2z
		 M125.5,667.6c1-10.9,2.2-21.7,4.6-32.4c0.8-3.6-1.5-5-4.6-5.7c-7.1-1.5-14.3-2.9-21.3-4.6c-5-1.2-7.2,0.7-7.9,5.6
		c-1.5,10.8-3.2,21.6-5,32.4c-0.7,4.4,0.1,6.9,5.2,7.2c7.5,0.4,15,1.3,22.6,2c1.7,0.1,3.4,0.5,5.3-1.1
		C124.6,670.2,125.3,669,125.5,667.6z M335.8,362.3c3.8-1.8,7.5-3.7,11.3-5.5c22.9-10.9,22.9-10.9,12.2-34.1
		c-0.1-0.3-0.2-0.5-0.3-0.8c-1.4-4.4-4.2-5.6-8.4-3.7c-9.9,4.6-19.8,9.1-29.6,13.7c-3.3,1.6-5.6,4-3.5,8c3.4,6.7,6.9,13.4,9.2,17.8
		C329.8,363.1,332.5,363.9,335.8,362.3z M493.6,313.6c-0.4-6.7-1.1-13.4-1.2-20.1c-0.1-5.6-2.6-7.4-7.8-6.8
		c-10.8,1.2-21.7,2.4-32.5,3.5c-4.3,0.4-5.7,2.8-5,6.9c1.2,6.9,2.5,13.8,3.3,20.7c0.6,5.1,3.1,6.3,8,5.6c9.4-1.3,18.9-2.1,28.3-3.1
		c1.7-0.2,3.3-0.4,4.5-0.5C494.2,318.2,493.8,315.8,493.6,313.6z M846.3,464.6c6.9-3.9,8.1-8.6,2.5-14.7c-3.4-3.7-5.9-8.5-9.8-11.5
		c-5.3-4.1-6.7-14.9-14.8-12.5c-6.1,1.8-10.6,8.8-15.9,13.3c-6,5.1-5.2,9.6,0.3,14.6c3.5,3.2,6.5,7,9.3,10.8
		c10.9,14.6,8.9,14.2,23.6,3.5C843.1,466.9,844.6,465.5,846.3,464.6z M168,575.1c-7.6-3-15.1-6-22.7-8.9c-3.6-1.4-5.2,0.9-6.2,3.8
		c-3.5,10.4-6.9,20.8-10.3,31.1c-1.5,4.4,0.1,6.9,4.6,8c6.8,1.6,13.6,3.3,20.3,5.4c4.6,1.4,6.7-0.4,8-4.6c2.8-9.1,5.9-18.1,8.8-27.2
		c0.6-1.8,1.5-3.7,0-5.9C169.9,576.3,169,575.5,168,575.1z M623.2,322c5.7-20.3,5.7-20.3-14.7-25.1c-25.3-5.9-26.1-5.3-28.9,20.9
		c-0.5,4.9,0.8,7.1,5.7,8c9.6,1.8,19.1,4.3,28.7,6.4c1.9,0.4,3.8,1.1,6.2-0.4C621.1,328.9,622.3,325.4,623.2,322z M706.2,369.7
		c8.8,5.5,17.6,10.8,26.4,16.3c3.8,2.4,6.3,0.6,8.4-2.5c3.6-5.3,7.1-10.8,10.9-15.9c3.1-4.2,2.1-7.1-2-9.6
		c-8.6-5.2-17.1-10.6-25.7-15.9c-1.4-0.8-3.3-2-4.6-1.6c-7,1.9-7.9,8.8-10.8,14c-2.3,4.1-6.3,8-4.8,13.5
		C704.9,368.7,705.5,369.3,706.2,369.7z M314.2,378.4c-0.9-1.4-2-2.7-2.9-4.2c-3.2-5.5-7-5.4-11.8-1.9c-5.4,4-10.9,7.9-16.6,11.5
		c-12,7.4-12.1,7.3-3.7,18.6c14.2,19.1,10.5,18.6,29.7,4.9C325.7,395.4,325.7,395.4,314.2,378.4z M224.1,465.5
		c-16.4-13.8-16.8-14.1-29.5,3.3c-15,20.6-15.8,15.1,5.2,29.8c1.6,1.1,3.4,2.1,4.9,3.3c3.6,2.8,6.4,2.4,9.1-1.4
		c5.2-7.3,10.8-14.3,16.2-21.5c1.7-2.2,3.7-4.5,0.3-8.1C228.8,469.5,226.4,467.5,224.1,465.5z M147.9,727.9
		c-0.1-8.7-0.8-17.3-0.4-26c0.3-5.8-2.3-7.3-7.3-7.4c-6.7-0.1-13.4-0.3-20.1-0.8c-4.8-0.4-6.7,1.6-6.7,6.2c0.1,7,0,14,0.1,21
		c0.2,15.8,0.2,15.8,16.1,14.9c5.6-0.3,11.1-0.7,15.5-1.1C148.5,732.4,147.9,730.1,147.9,727.9z M420.9,321.4
		c-9.2,2.4-18.3,5.2-27.6,7.5c-5.7,1.4-6.3,4.5-4.6,9.3c2.3,6.3,4.5,12.7,6.5,19.1c1.2,3.9,3.3,5.5,7.5,4.2c8.9-2.6,17.8-5,26.7-7.5
		c2.2-0.6,5.1-1.4,4.7-4c-1.4-9.1-3.4-18.1-4.9-25.8C426.5,319.7,423.5,320.7,420.9,321.4z M650.5,370c22.2,9.2,22,9.1,31.1-13.4
		c2.4-6,0.8-8.8-4.6-10.9c-8.3-3.2-16.6-6.6-24.9-9.8c-1.5-0.6-3.2-1.2-4.8-1.2c-3.6,0-4.2,3.2-5.1,5.8c-2.7,7.7-5.3,15.5-7.9,23.4
		C640.6,366.3,645.6,368,650.5,370z M551.1,312.4c-5-0.4-10-0.9-15.1-1.2c-20.6-1-20.6-0.9-20.9,19.8c-0.2,13-0.2,13,12.4,13.2
		c3.1,0.1,6.1,0.3,9.2,0.4c19.9,0.7,16.3,4.2,19.4-16.1c0.7-4.6,0.6-9.4,0.8-13.3C555,312.6,553,312.5,551.1,312.4z M181.6,784.9
		c-2-10.7-1.8-22.8-7.1-31.5c-3.3-5.4-14.6,0.7-22.3,0.8c-2,0-3.9,0.4-5.8,0.7c-2.7,0.4-3.8,2-3.5,4.8c1.3,10.6,2.4,21.2,5.4,31.5
		c0.6,2,1.4,4.2,3.8,3.8c9.3-1.8,18.6-3.9,26.6-5.7C181.3,787.6,181.9,786.3,181.6,784.9z M206.3,564.6c4.3-8.2,8.6-16.3,12.9-24.5
		c1.8-3.4,0.6-5.8-2.6-7.7c-6-3.5-12.1-7.1-18-10.8c-4.2-2.6-7.3-1.9-9.5,2.6c-4.2,8.2-8.5,16.4-12.7,24.6c-0.7,1.4-1.5,3.2-1.3,4.7
		c0.5,3.5,26.7,14.8,29.7,12.9C205.3,566,205.9,565.3,206.3,564.6z M275.8,431.2c-3.2-3.9-6.3-3.8-10.1-0.8
		c-7.5,5.9-14,12.9-20.7,19.7c-2.8,2.9-2.1,5.5,0.6,7.9c5.1,4.8,10.3,9.5,15.3,14.4c4,3.9,7.1,3,10.6-0.8c4.4-4.7,9-9.4,14-13.3
		c5.9-4.6,7.1-9,2.8-13C283.2,439.6,279.3,435.6,275.8,431.2z M357.4,407.8c9.5-4.7,22.5-6.2,27.7-14.5c4.5-7.1-5.1-16.7-7.8-25.4
		c-1.2-3.7-3.9-4.5-7.4-2.9c-8.6,4-17.3,8.1-25.9,12.1c-3.9,1.8-4.7,4.2-2.6,8.1c3.5,6.4,6.7,12.9,10,19.4
		C352.8,406.8,354.3,409.3,357.4,407.8z M166.3,638c-19-3.9-19-3.9-22,15.1c-3.3,21.2-3.3,21.2,17.5,23.4c2.5,0.3,5,0.6,7.5,0.9
		c3.7,0.5,5.8-0.9,6.3-4.8c1.3-9.1,2.8-18.2,4.1-27.4c0.2-1.3-0.1-2.7-0.3-4.6C174.9,639.8,170.6,638.9,166.3,638z M462.8,373.5
		c10.8-1.3,23.1-0.1,31.9-5.1c5.6-3.2-0.1-15.6,0.4-23.9c0-0.6-0.1-1.1-0.1-1.7c0.1-4.2-1.7-6.2-6.2-5.6c-9.2,1.2-18.4,2-27.6,3.1
		c-2.5,0.3-5.6,0.5-5.8,3.8c-0.4,9.3,2.2,18.3,3.6,26.8C460.1,372.9,461.3,373.7,462.8,373.5z M804.2,474.6
		c-1.7-2.2-3.6-4.3-5.5-6.3c-10.8-10.8-10.8-10.8-21.7-0.3c-11.6,11.2-11.6,11.2-1.7,23.9c0.7,0.9,1.3,1.8,2,2.7
		c10.8,14.6,8.9,14,23.5,3.3C814.5,487.9,814.5,487.9,804.2,474.6z M213.8,593c-6.8-2.7-13.6-5.2-20.4-8c-4.2-1.7-6.3,0-7.6,3.9
		c-2.7,8.6-5.4,17.1-8.2,25.6c-1.4,4.2-0.2,6.2,4,7.3c7.1,1.8,14.1,3.8,21,6c4.1,1.3,6.3,0.3,7.6-3.9c2.3-7.8,5-15.5,7.4-23.2
		c0.6-1.9,1.2-3.8-0.6-5.9C216.3,594.3,215.1,593.5,213.8,593z M607,348.5c-4.6-1.2-9.2-2.6-13.9-3.4c-20.4-3.6-16.7-4.5-19.9,13.3
		c-0.5,3-0.8,6.1-1.5,9.1c-0.9,4.4,0.6,7,5,8c8.2,1.8,16.4,3.8,24.6,5.6c3.2,0.7,5.4-0.2,6.3-3.7c1.8-7.1,3.8-14.1,5.7-21.1
		c0.4-1.6,0.6-3.3-0.5-4.9C611.3,349.6,609.2,349.1,607,348.5z M313.4,424.5c-11.6,8.4-11.6,8.4-3,20.1c13,17.7,10.6,16.2,27.2,4.4
		c13.5-9.6,13.5-9.6,5.9-21.9c-10.4-16.6-10.4-16.6-28.6-3.6C315.7,422.9,314.6,423.7,313.4,424.5z M706.4,428.6
		c2.4,1.4,4-1.1,5.3-3c3.8-5.5,7.5-11.1,11.5-16.5c2.7-3.6,2.8-6.5-1.3-9c-8.1-4.9-16.3-9.8-24.4-14.7c-3.2-2-5.1-0.7-6.8,2.2
		c-3.5,6.4-7.1,12.7-10.6,19.1c-1,1.9-2.4,4-0.3,6.1C688.6,418.1,697.4,423.5,706.4,428.6z M226.3,511.5c-2.4,3.3,0.3,5.1,2.6,6.7
		c6,4.1,12.2,8,18.2,12.1c3.5,2.4,6.1,1.9,8.5-1.5c4.3-5.9,8.6-11.8,13.2-17.5c3-3.7,2.2-6.4-1.3-9.2c-5.5-4.4-10.8-9-16.1-13.5
		c-2.3-2-4.6-3.4-7.6-0.8C237.9,495.7,232,503.6,226.3,511.5z M654.6,414.4c9.2-20.6,9.3-21-11.9-28.5c-17.8-6.3-13.6-6.8-19.6,8.7
		c-1.3,3.4-2.4,6.9-3.7,10.3c-1.8,4.4-1.1,7.3,3.8,9.1c7.1,2.6,14,5.8,20.9,8.7c2.1,0.9,4.1,2,6.8-0.8
		C651.9,419.9,653.4,417.2,654.6,414.4z M185.6,696.6c-22.4-1.1-22.6-1.1-21.5,20.9c0.8,17.1-2.9,16.3,16.7,14.8
		c17.9-1.4,17.9-1.5,17.4-20c-0.1-4.4-0.2-8.9-0.3-12.5C196.3,697.2,195.7,697.1,185.6,696.6z M445,396.6
		c-1.6-7.4-3.3-14.7-4.9-22.1c-1-4.5-3.9-4.9-7.6-3.9c-7.8,2.2-15.6,4.5-23.4,6.6c-4.3,1.2-6.1,3.6-4.6,8c2.4,6.9,4.7,13.8,7.1,20.6
		c0.8,2.2,2,4.5,4.7,3.9c8.9-2.3,17.8-4.9,25.5-7C445.6,401.1,445.6,399,445,396.6z M520.8,394.6c4.7,0.2,9.5,0.2,14.2,0.6
		c13.3,1.2,13.8,1.4,15-11.8c2.2-24,5.4-20-18.1-21.7c-16.9-1.2-17-0.7-17.1,16.7c0,4.7,0.1,9.4,0.1,13.2
		C516.9,394.5,518.9,394.5,520.8,394.6z M784.2,546.8c1.1,1.6,2.3,3.2,3.2,4.9c8,14.2,8,14.2,22.9,6.6c13.7-7,13.7-7,6.5-20.4
		c-10.3-19.4-11.3-19.6-29.6-6.9C778.2,537.3,778.1,537.9,784.2,546.8z M732.8,439c-2.7-2-4.9-2.2-7.2,0.6c-4.3,5.5-8.6,11-13,16.4
		c-3.1,3.8-2.5,6.8,1.3,9.9c5,4,9.7,8.4,14.4,12.7c3.2,2.9,6.3,3.4,9.5,0.1c4.6-4.8,9.3-9.6,13.8-14.6c2.2-2.4,3.6-5.1,0.5-8
		C746.2,450,739.9,444.1,732.8,439z"/>
</g>
<g>
	
		<linearGradient id="SVGID_00000022531087803944900390000013823379679852153779_" gradientUnits="userSpaceOnUse" x1="296.3502" y1="545.561" x2="296.3502" y2="870.6715">
		<stop  offset="0" style="stop-color:#282828"/>
		<stop  offset="0.3356" style="stop-color:#2C2C2C"/>
		<stop  offset="0.6359" style="stop-color:#363636"/>
		<stop  offset="0.9219" style="stop-color:#494949"/>
		<stop  offset="1" style="stop-color:#4F4F4F"/>
	</linearGradient>
	<path style="fill:url(#SVGID_00000022531087803944900390000013823379679852153779_);" d="M246.6,698.7V588.1h47
		c11.8,0,20.4,1,25.8,3c5.4,2,9.6,5.5,12.9,10.6c3.2,5.1,4.8,10.9,4.8,17.4c0,8.3-2.4,15.2-7.3,20.6c-4.9,5.4-12.2,8.8-21.9,10.2
		c4.8,2.8,8.8,5.9,12,9.3c3.1,3.4,7.4,9.4,12.7,18l13.5,21.6h-26.7l-16.1-24.1c-5.7-8.6-9.7-14-11.8-16.3c-2.1-2.2-4.4-3.8-6.7-4.6
		c-2.4-0.8-6.1-1.2-11.2-1.2H269v46.2H246.6z M269,634.9h16.5c10.7,0,17.4-0.5,20.1-1.4c2.7-0.9,4.8-2.5,6.3-4.7
		c1.5-2.2,2.3-5,2.3-8.3c0-3.7-1-6.7-3-9c-2-2.3-4.8-3.7-8.4-4.3c-1.8-0.3-7.2-0.4-16.3-0.4H269V634.9z"/>
	
		<linearGradient id="SVGID_00000134959474262732511060000014197430403764155044_" gradientUnits="userSpaceOnUse" x1="394.4075" y1="545.561" x2="394.4075" y2="870.6715">
		<stop  offset="0" style="stop-color:#282828"/>
		<stop  offset="0.3356" style="stop-color:#2C2C2C"/>
		<stop  offset="0.6359" style="stop-color:#363636"/>
		<stop  offset="0.9219" style="stop-color:#494949"/>
		<stop  offset="1" style="stop-color:#4F4F4F"/>
	</linearGradient>
	<path style="fill:url(#SVGID_00000134959474262732511060000014197430403764155044_);" d="M379.1,588.1v40.7c6.8-8,15-12,24.5-12
		c4.9,0,9.3,0.9,13.2,2.7c3.9,1.8,6.9,4.1,8.9,6.9c2,2.8,3.3,5.9,4.1,9.4c0.7,3.4,1.1,8.7,1.1,15.9v47h-21.2v-42.3
		c0-8.4-0.4-13.7-1.2-16c-0.8-2.3-2.2-4.1-4.3-5.4c-2-1.3-4.6-2-7.7-2c-3.5,0-6.7,0.9-9.4,2.6c-2.8,1.7-4.8,4.3-6.1,7.7
		c-1.3,3.4-1.9,8.5-1.9,15.3v40.1h-21.2V588.1H379.1z"/>
	
		<linearGradient id="SVGID_00000130643757123498721510000001790501335793451921_" gradientUnits="userSpaceOnUse" x1="483.561" y1="545.561" x2="483.561" y2="870.6715">
		<stop  offset="0" style="stop-color:#282828"/>
		<stop  offset="0.3356" style="stop-color:#2C2C2C"/>
		<stop  offset="0.6359" style="stop-color:#363636"/>
		<stop  offset="0.9219" style="stop-color:#494949"/>
		<stop  offset="1" style="stop-color:#4F4F4F"/>
	</linearGradient>
	<path style="fill:url(#SVGID_00000130643757123498721510000001790501335793451921_);" d="M442.4,618.6h22.6l19.2,56.9l18.7-56.9h22
		l-28.3,77.1l-5.1,14c-1.9,4.7-3.6,8.3-5.3,10.7c-1.7,2.5-3.6,4.5-5.8,6c-2.2,1.5-4.9,2.7-8.1,3.6c-3.2,0.9-6.8,1.3-10.8,1.3
		c-4.1,0-8.1-0.4-12-1.3l-1.9-16.6c3.3,0.7,6.3,1,9,1c4.9,0,8.6-1.4,10.9-4.3c2.4-2.9,4.2-6.6,5.4-11.1L442.4,618.6z"/>
	
		<linearGradient id="SVGID_00000132081520721267033510000015000346630696526992_" gradientUnits="userSpaceOnUse" x1="553.209" y1="545.561" x2="553.209" y2="870.6715">
		<stop  offset="0" style="stop-color:#282828"/>
		<stop  offset="0.3356" style="stop-color:#2C2C2C"/>
		<stop  offset="0.6359" style="stop-color:#363636"/>
		<stop  offset="0.9219" style="stop-color:#494949"/>
		<stop  offset="1" style="stop-color:#4F4F4F"/>
	</linearGradient>
	<path style="fill:url(#SVGID_00000132081520721267033510000015000346630696526992_);" d="M575.1,618.6v16.9h-14.5v32.3
		c0,6.5,0.1,10.3,0.4,11.4c0.3,1.1,0.9,2,1.9,2.7c1,0.7,2.2,1.1,3.6,1.1c2,0,4.8-0.7,8.5-2l1.8,16.5c-4.9,2.1-10.5,3.2-16.8,3.2
		c-3.8,0-7.3-0.6-10.3-1.9c-3.1-1.3-5.3-2.9-6.8-5c-1.4-2-2.4-4.8-3-8.3c-0.5-2.5-0.7-7.4-0.7-14.9v-34.9h-9.7v-16.9h9.7v-15.9
		l21.3-12.4v28.3H575.1z"/>
	
		<linearGradient id="SVGID_00000152972991882794578260000018315056934985412796_" gradientUnits="userSpaceOnUse" x1="626.2146" y1="545.561" x2="626.2146" y2="870.6715">
		<stop  offset="0" style="stop-color:#282828"/>
		<stop  offset="0.3356" style="stop-color:#2C2C2C"/>
		<stop  offset="0.6359" style="stop-color:#363636"/>
		<stop  offset="0.9219" style="stop-color:#494949"/>
		<stop  offset="1" style="stop-color:#4F4F4F"/>
	</linearGradient>
	<path style="fill:url(#SVGID_00000152972991882794578260000018315056934985412796_);" d="M610.9,588.1v40.7c6.8-8,15-12,24.5-12
		c4.9,0,9.3,0.9,13.2,2.7c3.9,1.8,6.9,4.1,8.9,6.9c2,2.8,3.3,5.9,4.1,9.4c0.7,3.4,1.1,8.7,1.1,15.9v47h-21.2v-42.3
		c0-8.4-0.4-13.7-1.2-16c-0.8-2.3-2.2-4.1-4.3-5.4c-2-1.3-4.6-2-7.7-2c-3.5,0-6.7,0.9-9.4,2.6c-2.8,1.7-4.8,4.3-6.1,7.7
		c-1.3,3.4-1.9,8.5-1.9,15.3v40.1h-21.2V588.1H610.9z"/>
	
		<linearGradient id="SVGID_00000168827162109563927090000007963684239346381995_" gradientUnits="userSpaceOnUse" x1="741.5511" y1="545.561" x2="741.5511" y2="870.6715">
		<stop  offset="0" style="stop-color:#282828"/>
		<stop  offset="0.3356" style="stop-color:#2C2C2C"/>
		<stop  offset="0.6359" style="stop-color:#363636"/>
		<stop  offset="0.9219" style="stop-color:#494949"/>
		<stop  offset="1" style="stop-color:#4F4F4F"/>
	</linearGradient>
	<path style="fill:url(#SVGID_00000168827162109563927090000007963684239346381995_);" d="M682.6,618.6h19.5v10.9
		c7-8.5,15.3-12.8,25-12.8c5.1,0,9.6,1.1,13.4,3.2c3.8,2.1,6.9,5.3,9.3,9.6c3.5-4.3,7.3-7.5,11.4-9.6c4.1-2.1,8.4-3.2,13.1-3.2
		c5.9,0,10.9,1.2,14.9,3.6c4.1,2.4,7.1,5.9,9.1,10.5c1.5,3.4,2.2,9,2.2,16.6v51.2h-21.2v-45.8c0-7.9-0.7-13.1-2.2-15.4
		c-2-3-5-4.5-9.1-4.5c-3,0-5.8,0.9-8.4,2.7c-2.6,1.8-4.5,4.5-5.7,8c-1.2,3.5-1.7,9-1.7,16.6v38.5h-21.2v-43.9
		c0-7.8-0.4-12.8-1.1-15.1s-1.9-3.9-3.5-5.1c-1.6-1.1-3.7-1.7-6.5-1.7c-3.3,0-6.2,0.9-8.8,2.6c-2.6,1.8-4.5,4.3-5.6,7.6
		c-1.1,3.3-1.7,8.8-1.7,16.5v38.9h-21.2V618.6z"/>
	
		<linearGradient id="SVGID_00000088822287549218117550000007213627553880463543_" gradientUnits="userSpaceOnUse" x1="535.2874" y1="545.561" x2="535.2874" y2="870.6715">
		<stop  offset="0" style="stop-color:#282828"/>
		<stop  offset="0.3356" style="stop-color:#2C2C2C"/>
		<stop  offset="0.6359" style="stop-color:#363636"/>
		<stop  offset="0.9219" style="stop-color:#494949"/>
		<stop  offset="1" style="stop-color:#4F4F4F"/>
	</linearGradient>
	<path style="fill:url(#SVGID_00000088822287549218117550000007213627553880463543_);" d="M538.9,817.9v-18.6H587v44.1
		c-4.7,4.5-11.5,8.5-20.3,12c-8.9,3.4-17.9,5.2-27,5.2c-11.6,0-21.7-2.4-30.3-7.3c-8.6-4.9-15.1-11.8-19.4-20.8
		c-4.3-9-6.5-18.9-6.5-29.5c0-11.5,2.4-21.8,7.2-30.7c4.8-9,11.9-15.8,21.2-20.6c7.1-3.7,15.9-5.5,26.5-5.5
		c13.7,0,24.5,2.9,32.2,8.6c7.7,5.8,12.7,13.7,14.9,23.9l-22.2,4.2c-1.6-5.4-4.5-9.7-8.8-12.9c-4.3-3.1-9.7-4.7-16.1-4.7
		c-9.8,0-17.5,3.1-23.3,9.3c-5.8,6.2-8.6,15.4-8.6,27.5c0,13.1,2.9,23,8.8,29.5c5.8,6.6,13.5,9.8,22.9,9.8c4.7,0,9.4-0.9,14.1-2.8
		c4.7-1.8,8.7-4.1,12.1-6.7v-14H538.9z"/>
	
		<linearGradient id="SVGID_00000043432018263399759120000017596877265352991675_" gradientUnits="userSpaceOnUse" x1="639.4944" y1="545.561" x2="639.4944" y2="870.6715">
		<stop  offset="0" style="stop-color:#282828"/>
		<stop  offset="0.3356" style="stop-color:#2C2C2C"/>
		<stop  offset="0.6359" style="stop-color:#363636"/>
		<stop  offset="0.9219" style="stop-color:#494949"/>
		<stop  offset="1" style="stop-color:#4F4F4F"/>
	</linearGradient>
	<path style="fill:url(#SVGID_00000043432018263399759120000017596877265352991675_);" d="M623.3,802.9l-19.2-3.5
		c2.2-7.7,5.9-13.5,11.2-17.2c5.3-3.7,13.1-5.6,23.5-5.6c9.5,0,16.5,1.1,21.1,3.4c4.6,2.2,7.9,5.1,9.8,8.5c1.9,3.4,2.8,9.8,2.8,19
		l-0.2,24.8c0,7,0.3,12.2,1,15.6c0.7,3.3,1.9,6.9,3.8,10.8h-21c-0.6-1.4-1.2-3.5-2-6.3c-0.4-1.3-0.6-2.1-0.8-2.5
		c-3.6,3.5-7.5,6.2-11.6,7.9c-4.1,1.8-8.5,2.6-13.2,2.6c-8.3,0-14.8-2.2-19.5-6.7c-4.8-4.5-7.1-10.1-7.1-17c0-4.5,1.1-8.6,3.2-12.1
		c2.2-3.5,5.2-6.3,9.1-8.1c3.9-1.9,9.5-3.5,16.9-4.9c9.9-1.9,16.8-3.6,20.6-5.2v-2.1c0-4.1-1-7-3-8.7c-2-1.7-5.8-2.6-11.4-2.6
		c-3.8,0-6.7,0.7-8.8,2.2C626.3,796.6,624.6,799.2,623.3,802.9z M651.7,820.1c-2.7,0.9-7,2-12.9,3.2c-5.9,1.3-9.7,2.5-11.5,3.7
		c-2.8,2-4.2,4.5-4.2,7.5c0,3,1.1,5.5,3.3,7.7c2.2,2.2,5,3.2,8.5,3.2c3.8,0,7.5-1.3,10.9-3.8c2.6-1.9,4.3-4.3,5.1-7
		c0.6-1.8,0.8-5.3,0.8-10.3V820.1z"/>
	
		<linearGradient id="SVGID_00000007401365109755579070000008860212615484841131_" gradientUnits="userSpaceOnUse" x1="704.011" y1="545.561" x2="704.011" y2="870.6715">
		<stop  offset="0" style="stop-color:#282828"/>
		<stop  offset="0.3356" style="stop-color:#2C2C2C"/>
		<stop  offset="0.6359" style="stop-color:#363636"/>
		<stop  offset="0.9219" style="stop-color:#494949"/>
		<stop  offset="1" style="stop-color:#4F4F4F"/>
	</linearGradient>
	<path style="fill:url(#SVGID_00000007401365109755579070000008860212615484841131_);" d="M693.4,858.6V747.9h21.2v110.6H693.4z"/>
	
		<linearGradient id="SVGID_00000179612292196090526970000000116644506991873464_" gradientUnits="userSpaceOnUse" x1="768.3768" y1="545.561" x2="768.3768" y2="870.6715">
		<stop  offset="0" style="stop-color:#282828"/>
		<stop  offset="0.3356" style="stop-color:#2C2C2C"/>
		<stop  offset="0.6359" style="stop-color:#363636"/>
		<stop  offset="0.9219" style="stop-color:#494949"/>
		<stop  offset="1" style="stop-color:#4F4F4F"/>
	</linearGradient>
	<path style="fill:url(#SVGID_00000179612292196090526970000000116644506991873464_);" d="M752.2,802.9l-19.2-3.5
		c2.2-7.7,5.9-13.5,11.2-17.2c5.3-3.7,13.1-5.6,23.5-5.6c9.5,0,16.5,1.1,21.1,3.4c4.6,2.2,7.9,5.1,9.8,8.5c1.9,3.4,2.8,9.8,2.8,19
		l-0.2,24.8c0,7,0.3,12.2,1,15.6c0.7,3.3,1.9,6.9,3.8,10.8h-21c-0.6-1.4-1.2-3.5-2-6.3c-0.4-1.3-0.6-2.1-0.8-2.5
		c-3.6,3.5-7.5,6.2-11.6,7.9c-4.1,1.8-8.5,2.6-13.2,2.6c-8.3,0-14.8-2.2-19.5-6.7c-4.8-4.5-7.1-10.1-7.1-17c0-4.5,1.1-8.6,3.2-12.1
		c2.2-3.5,5.2-6.3,9.1-8.1c3.9-1.9,9.5-3.5,16.9-4.9c9.9-1.9,16.8-3.6,20.6-5.2v-2.1c0-4.1-1-7-3-8.7c-2-1.7-5.8-2.6-11.4-2.6
		c-3.8,0-6.7,0.7-8.8,2.2C755.2,796.6,753.5,799.2,752.2,802.9z M780.6,820.1c-2.7,0.9-7,2-12.9,3.2c-5.9,1.3-9.7,2.5-11.5,3.7
		c-2.8,2-4.2,4.5-4.2,7.5c0,3,1.1,5.5,3.3,7.7c2.2,2.2,5,3.2,8.5,3.2c3.8,0,7.5-1.3,10.9-3.8c2.6-1.9,4.3-4.3,5.1-7
		c0.6-1.8,0.8-5.3,0.8-10.3V820.1z"/>
	
		<linearGradient id="SVGID_00000092452318623036874520000016572749985436239022_" gradientUnits="userSpaceOnUse" x1="853.9076" y1="545.561" x2="853.9076" y2="870.6715">
		<stop  offset="0" style="stop-color:#282828"/>
		<stop  offset="0.3356" style="stop-color:#2C2C2C"/>
		<stop  offset="0.6359" style="stop-color:#363636"/>
		<stop  offset="0.9219" style="stop-color:#494949"/>
		<stop  offset="1" style="stop-color:#4F4F4F"/>
	</linearGradient>
	<path style="fill:url(#SVGID_00000092452318623036874520000016572749985436239022_);" d="M812.1,858.6l28.9-41.3l-27.7-38.9h25.9
		l14.2,22l14.9-22h24.9l-27.2,38l29.7,42.2h-26l-16.3-24.8l-16.4,24.8H812.1z"/>
	
		<linearGradient id="SVGID_00000151527447879314575610000004945271989349836428_" gradientUnits="userSpaceOnUse" x1="939.4023" y1="545.561" x2="939.4023" y2="870.6715">
		<stop  offset="0" style="stop-color:#282828"/>
		<stop  offset="0.3356" style="stop-color:#2C2C2C"/>
		<stop  offset="0.6359" style="stop-color:#363636"/>
		<stop  offset="0.9219" style="stop-color:#494949"/>
		<stop  offset="1" style="stop-color:#4F4F4F"/>
	</linearGradient>
	<path style="fill:url(#SVGID_00000151527447879314575610000004945271989349836428_);" d="M898.2,778.4h22.6l19.2,56.9l18.7-56.9h22
		l-28.3,77.1l-5.1,14c-1.9,4.7-3.6,8.3-5.3,10.7c-1.7,2.5-3.6,4.5-5.8,6c-2.2,1.5-4.9,2.7-8.1,3.6c-3.2,0.9-6.8,1.3-10.8,1.3
		c-4.1,0-8.1-0.4-12-1.3l-1.9-16.6c3.3,0.7,6.3,1,9,1c4.9,0,8.6-1.4,10.9-4.3c2.4-2.9,4.2-6.6,5.4-11.1L898.2,778.4z"/>
</g>
</svg>
