<svg width="198" height="119" viewBox="0 0 198 119" fill="none" xmlns="http://www.w3.org/2000/svg">
<g filter="url(#filter0_i_416_790)">
<path d="M94.75 91.127C98.254 93.5796 102.518 95.0204 107.12 95.0205C107.677 95.0205 108.23 94.9995 108.776 94.958L108.839 95.0205L108.775 95.083C108.229 95.0416 107.677 95.0205 107.12 95.0205C95.1911 95.0208 85.5208 104.691 85.5205 116.62C85.5205 117.178 85.5405 117.73 85.582 118.277L85.4443 118.415C85.493 117.823 85.5205 117.225 85.5205 116.62C85.5202 104.691 75.849 95.0207 63.9199 95.0205C63.3 95.0205 62.6858 95.0484 62.0791 95.0996L62 95.0205L62.0791 94.9404C62.6859 94.9916 63.2999 95.0205 63.9199 95.0205C68.5039 95.0204 72.7534 93.5908 76.25 91.1553V56.375H72.5C68.25 56.375 65.1458 56.7292 63.1875 57.4375C61.2292 58.1042 59.375 59.375 57.625 61.25C55.875 63.0833 52.625 67.5625 47.875 74.6875L35.6865 92.8555C38.5369 94.2418 41.7374 95.0204 45.1201 95.0205C45.6691 95.0205 46.2133 94.9992 46.752 94.959L46.8389 95.0205L46.7754 95.083C46.2291 95.0416 45.677 95.0205 45.1201 95.0205C33.1911 95.0208 23.5208 104.691 23.5205 116.62C23.5205 117.178 23.5405 117.73 23.582 118.277L23.4443 118.415C23.493 117.823 23.5205 117.225 23.5205 116.62C23.5202 104.691 13.849 95.0207 1.91992 95.0205C1.29995 95.0205 0.685831 95.0484 0.0791016 95.0996L0 95.0205L0.108398 94.9434C0.705603 94.993 1.30991 95.0205 1.91992 95.0205C6.74217 95.0204 11.1941 93.4388 14.7881 90.7676L23.5625 76.75C27.9792 69.625 31.5 64.6667 34.125 61.875C36.7083 59.0833 40 56.5208 44 54.1875C35.9583 53.0208 29.9167 50.2083 25.875 45.75C21.8333 41.25 19.8125 35.5625 19.8125 28.6875C19.8125 23.2708 21.1458 18.4583 23.8125 14.25C26.4792 10.0417 30.0417 7.125 34.5 5.5C38.9167 3.83333 46.0208 3 55.8125 3H94.75V91.127ZM61.8125 18.5C54.3125 18.5 49.8125 18.6042 48.3125 18.8125C45.3125 19.3125 43 20.5208 41.375 22.4375C39.7083 24.3125 38.875 26.7917 38.875 29.875C38.875 32.625 39.5 34.9167 40.75 36.75C42 38.5833 43.7292 39.875 45.9375 40.625C48.1458 41.375 53.6875 41.75 62.5625 41.75H76.25V18.5H61.8125Z" fill="url(#paint0_linear_416_790)"/>
</g>
<g filter="url(#filter1_i_416_790)">
<path d="M147.125 0.8125C158.5 0.8125 167.375 3.20833 173.75 8C179.155 12.0008 182.933 17.3023 185.086 23.9043C188.648 24.1586 192.324 23.5332 195.786 21.9072C196.29 21.6704 196.781 21.4163 197.258 21.1465L197.342 21.1768L197.311 21.2598C196.799 21.4545 196.29 21.6706 195.786 21.9072C186.865 26.097 182.146 35.6064 183.635 44.875H187.312V81.375C183.438 85.125 177.812 88.4375 170.438 91.3125C163.104 94.1458 155.667 95.5625 148.125 95.5625C138.542 95.5625 130.188 93.5625 123.062 89.5625C115.938 85.5208 110.583 79.7708 107 72.3125C103.417 64.8125 101.625 56.6667 101.625 47.875C101.625 38.3333 103.625 29.8542 107.625 22.4375C111.625 15.0208 117.479 9.33333 125.188 5.375C131.062 2.33333 138.375 0.8125 147.125 0.8125ZM147.125 16.625C139.042 16.625 132.604 19.1875 127.812 24.3125C123.062 29.4375 120.688 37.0417 120.688 47.125C120.688 58 123.104 66.1667 127.938 71.625C132.771 77.0417 139.104 79.75 146.938 79.75C150.812 79.75 154.688 79 158.562 77.5C162.479 75.9583 165.833 74.1042 168.625 71.9375V60.3125H157.27C153.114 64.2492 150.521 69.819 150.521 75.9951C150.521 76.5527 150.541 77.1054 150.582 77.6523L150.444 77.79C150.493 77.1981 150.521 76.5996 150.521 75.9951C150.52 64.0661 140.849 54.3957 128.92 54.3955C128.3 54.3955 127.686 54.4234 127.079 54.4746L127 54.3955L127.079 54.3154C127.686 54.3666 128.3 54.3955 128.92 54.3955C140.849 54.3953 150.521 44.7242 150.521 32.7949C150.52 32.1904 150.493 31.5919 150.444 31L150.582 31.1377C150.541 31.6846 150.521 32.2373 150.521 32.7949C150.521 37.2697 151.881 41.427 154.211 44.875H181.466C175.227 38.3625 165.297 36.2251 156.683 40.2705C156.121 40.534 155.577 40.8207 155.05 41.125L154.945 41.0869L154.982 40.9805C155.553 40.7689 156.121 40.534 156.683 40.2705C161.555 37.9821 165.174 34.1064 167.213 29.5498C165.832 25.8198 163.574 22.8238 160.438 20.5625C156.896 17.9375 152.458 16.625 147.125 16.625Z" fill="url(#paint1_linear_416_790)"/>
</g>
<g filter="url(#filter2_i_416_790)">
<rect x="116" y="100" width="5" height="18" fill="url(#paint2_linear_416_790)"/>
<rect x="124" y="108" width="5" height="10" fill="url(#paint3_linear_416_790)"/>
<rect x="132" y="103" width="5" height="15" fill="url(#paint4_linear_416_790)"/>
<rect x="140" y="107" width="5" height="11" fill="url(#paint5_linear_416_790)"/>
<rect x="148" y="104" width="5" height="14" fill="url(#paint6_linear_416_790)"/>
<rect x="156" y="101" width="5" height="17" fill="url(#paint7_linear_416_790)"/>
<rect x="164" y="107" width="5" height="11" fill="url(#paint8_linear_416_790)"/>
<rect x="172" y="102" width="5" height="16" fill="url(#paint9_linear_416_790)"/>
<rect x="180" y="111" width="5" height="7" fill="url(#paint10_linear_416_790)"/>
</g>
<defs>
<filter id="filter0_i_416_790" x="0" y="3" width="108.839" height="116.415" filterUnits="userSpaceOnUse" color-interpolation-filters="sRGB">
<feFlood flood-opacity="0" result="BackgroundImageFix"/>
<feBlend mode="normal" in="SourceGraphic" in2="BackgroundImageFix" result="shape"/>
<feColorMatrix in="SourceAlpha" type="matrix" values="0 0 0 0 0 0 0 0 0 0 0 0 0 0 0 0 0 0 127 0" result="hardAlpha"/>
<feOffset dy="1"/>
<feGaussianBlur stdDeviation="2"/>
<feComposite in2="hardAlpha" operator="arithmetic" k2="-1" k3="1"/>
<feColorMatrix type="matrix" values="0 0 0 0 0 0 0 0 0 0 0 0 0 0 0 0 0 0 0.25 0"/>
<feBlend mode="normal" in2="shape" result="effect1_innerShadow_416_790"/>
</filter>
<filter id="filter1_i_416_790" x="101.625" y="0.8125" width="95.7168" height="95.75" filterUnits="userSpaceOnUse" color-interpolation-filters="sRGB">
<feFlood flood-opacity="0" result="BackgroundImageFix"/>
<feBlend mode="normal" in="SourceGraphic" in2="BackgroundImageFix" result="shape"/>
<feColorMatrix in="SourceAlpha" type="matrix" values="0 0 0 0 0 0 0 0 0 0 0 0 0 0 0 0 0 0 127 0" result="hardAlpha"/>
<feOffset dy="1"/>
<feGaussianBlur stdDeviation="2"/>
<feComposite in2="hardAlpha" operator="arithmetic" k2="-1" k3="1"/>
<feColorMatrix type="matrix" values="0 0 0 0 0 0 0 0 0 0 0 0 0 0 0 0 0 0 0.25 0"/>
<feBlend mode="normal" in2="shape" result="effect1_innerShadow_416_790"/>
</filter>
<filter id="filter2_i_416_790" x="116" y="99" width="69" height="19" filterUnits="userSpaceOnUse" color-interpolation-filters="sRGB">
<feFlood flood-opacity="0" result="BackgroundImageFix"/>
<feBlend mode="normal" in="SourceGraphic" in2="BackgroundImageFix" result="shape"/>
<feColorMatrix in="SourceAlpha" type="matrix" values="0 0 0 0 0 0 0 0 0 0 0 0 0 0 0 0 0 0 127 0" result="hardAlpha"/>
<feOffset dy="-1"/>
<feGaussianBlur stdDeviation="2"/>
<feComposite in2="hardAlpha" operator="arithmetic" k2="-1" k3="1"/>
<feColorMatrix type="matrix" values="0 0 0 0 0 0 0 0 0 0 0 0 0 0 0 0 0 0 0.25 0"/>
<feBlend mode="normal" in2="shape" result="effect1_innerShadow_416_790"/>
</filter>
<linearGradient id="paint0_linear_416_790" x1="23.5" y1="7.625" x2="93.5" y2="120.625" gradientUnits="userSpaceOnUse">
<stop stop-color="#CAEDFA"/>
<stop offset="1" stop-color="#9559EA"/>
</linearGradient>
<linearGradient id="paint1_linear_416_790" x1="116.5" y1="3.5" x2="174.5" y2="103.5" gradientUnits="userSpaceOnUse">
<stop stop-color="#C5DDE8"/>
<stop offset="1" stop-color="#B869DD"/>
</linearGradient>
<linearGradient id="paint2_linear_416_790" x1="117.196" y1="88.5" x2="117.196" y2="144" gradientUnits="userSpaceOnUse">
<stop stop-color="#C3A1FF"/>
<stop offset="1" stop-color="#DEF1FF"/>
</linearGradient>
<linearGradient id="paint3_linear_416_790" x1="125.196" y1="101.611" x2="125.196" y2="132.444" gradientUnits="userSpaceOnUse">
<stop stop-color="#C3A1FF"/>
<stop offset="1" stop-color="#DEF1FF"/>
</linearGradient>
<linearGradient id="paint4_linear_416_790" x1="133.196" y1="93.4167" x2="133.196" y2="139.667" gradientUnits="userSpaceOnUse">
<stop stop-color="#C3A1FF"/>
<stop offset="1" stop-color="#DEF1FF"/>
</linearGradient>
<linearGradient id="paint5_linear_416_790" x1="141.196" y1="99.9722" x2="141.196" y2="133.889" gradientUnits="userSpaceOnUse">
<stop stop-color="#C3A1FF"/>
<stop offset="1" stop-color="#DEF1FF"/>
</linearGradient>
<linearGradient id="paint6_linear_416_790" x1="149.196" y1="95.0556" x2="149.196" y2="138.222" gradientUnits="userSpaceOnUse">
<stop stop-color="#C3A1FF"/>
<stop offset="1" stop-color="#DEF1FF"/>
</linearGradient>
<linearGradient id="paint7_linear_416_790" x1="157.196" y1="90.1389" x2="157.196" y2="142.556" gradientUnits="userSpaceOnUse">
<stop stop-color="#C3A1FF"/>
<stop offset="1" stop-color="#DEF1FF"/>
</linearGradient>
<linearGradient id="paint8_linear_416_790" x1="165.196" y1="99.9722" x2="165.196" y2="133.889" gradientUnits="userSpaceOnUse">
<stop stop-color="#C3A1FF"/>
<stop offset="1" stop-color="#DEF1FF"/>
</linearGradient>
<linearGradient id="paint9_linear_416_790" x1="173.196" y1="91.7778" x2="173.196" y2="141.111" gradientUnits="userSpaceOnUse">
<stop stop-color="#C3A1FF"/>
<stop offset="1" stop-color="#DEF1FF"/>
</linearGradient>
<linearGradient id="paint10_linear_416_790" x1="181.196" y1="106.528" x2="181.196" y2="128.111" gradientUnits="userSpaceOnUse">
<stop stop-color="#C3A1FF"/>
<stop offset="1" stop-color="#DEF1FF"/>
</linearGradient>
</defs>
</svg>
