<?xml version="1.0" encoding="utf-8"?>
<!-- Generator: Adobe Illustrator 26.3.1, SVG Export Plug-In . SVG Version: 6.00 Build 0)  -->
<svg version="1.1" id="圖層_1" xmlns="http://www.w3.org/2000/svg" xmlns:xlink="http://www.w3.org/1999/xlink" x="0px" y="0px"
	 viewBox="0 0 101 101" style="enable-background:new 0 0 101 101;" xml:space="preserve">
<style type="text/css">
	.st0{fill:#FFFFFF;}
	.st1{display:none;fill:#FFFFFF;}
</style>
<path class="st0" d="M50.5,1.6V0.1l0,0V1.6z M99.4,50.5h1.5l0,0H99.4z M50.5,99.4v1.5l0,0V99.4z M1.6,50.5H0.1l0,0H1.6z M50.5,42.9
	v-1.5l0,0V42.9z M42.9,50.5l-1.5,0v0H42.9z M50.5,58.1v1.5l0,0V58.1z M58.1,50.5h1.5v0L58.1,50.5z M50.5,1.6v1.5
	c26.2,0,47.4,21.2,47.4,47.4h1.5h1.5c0-27.8-22.6-50.4-50.4-50.4V1.6z M99.4,50.5h-1.5c0,26.2-21.2,47.4-47.4,47.4v1.5v1.5
	c27.8,0,50.4-22.6,50.4-50.4H99.4z M50.5,99.4v-1.5c-26.2,0-47.4-21.2-47.4-47.4H1.6H0.1c0,27.8,22.6,50.4,50.4,50.4V99.4z
	 M1.6,50.5h1.5c0-26.2,21.2-47.4,47.4-47.4V1.6V0.1C22.7,0.1,0.1,22.7,0.1,50.5H1.6z M50.5,42.9v-1.5c-5,0-9.1,4.1-9.1,9.1l1.5,0
	h1.5c0-3.4,2.7-6.1,6.1-6.1V42.9z M42.9,50.5h-1.5c0,5,4.1,9.1,9.1,9.1v-1.5v-1.5c-3.4,0-6.1-2.7-6.1-6.1H42.9z M50.5,58.1v1.5
	c5,0,9.1-4.1,9.1-9.1h-1.5h-1.5c0,3.4-2.7,6.1-6.1,6.1V58.1z M58.1,50.5l1.5,0c0-5-4.1-9.1-9.1-9.1v1.5v1.5c3.4,0,6.1,2.7,6.1,6.1
	H58.1z"/>
<path class="st1" d="M-64.8,3.1V1.6l0,0V3.1z M-15.9,52h1.5l0,0H-15.9z M-64.8,100.9v1.5l0,0V100.9z M-113.7,52h-1.5l0,0H-113.7z
	 M-64.8,44.4v-1.5l0,0V44.4z M-72.4,52l-1.5,0v0H-72.4z M-64.8,59.6v1.5l0,0V59.6z M-57.1,52h1.5v0L-57.1,52z M-64.8,3.1v1.5
	c26.2,0,47.4,21.2,47.4,47.4h1.5h1.5c0-27.8-22.6-50.4-50.4-50.4V3.1z M-15.9,52h-1.5c0,26.2-21.2,47.4-47.4,47.4v1.5v1.5
	c27.8,0,50.4-22.6,50.4-50.4H-15.9z M-64.8,100.9v-1.5c-26.2,0-47.4-21.2-47.4-47.4h-1.5h-1.5c0,27.8,22.6,50.4,50.4,50.4V100.9z
	 M-113.7,52h1.5c0-26.2,21.2-47.4,47.4-47.4V3.1V1.6c-27.8,0-50.4,22.6-50.4,50.4H-113.7z M-64.8,44.4v-1.5c-5,0-9.1,4.1-9.1,9.1
	l1.5,0h1.5c0-3.4,2.7-6.1,6.1-6.1V44.4z M-72.4,52h-1.5c0,5,4.1,9.1,9.1,9.1v-1.5v-1.5c-3.4,0-6.1-2.7-6.1-6.1H-72.4z M-64.8,59.6
	v1.5c5,0,9.1-4.1,9.1-9.1h-1.5h-1.5c0,3.4-2.7,6.1-6.1,6.1V59.6z M-57.1,52l1.5,0c0-5-4.1-9.1-9.1-9.1v1.5v1.5
	c3.4,0,6.1,2.7,6.1,6.1H-57.1z"/>
</svg>
