<svg width="65" height="65" viewBox="0 0 65 65" fill="none" xmlns="http://www.w3.org/2000/svg">
<path d="M0 32.5C0 14.5507 14.5507 0 32.5 0C50.4493 0 65 14.5507 65 32.5C65 50.4493 50.4493 65 32.5 65C14.5507 65 0 50.4493 0 32.5Z" fill="white"/>
<path d="M45.6294 18.4068C46.1718 17.8644 47.0518 17.8645 47.5943 18.4068C48.1367 18.9492 48.1367 19.8292 47.5943 20.3716L34.9653 33.0005L47.5943 45.6294L47.689 45.7349C48.134 46.2804 48.1028 47.0857 47.5943 47.5943C47.0857 48.1028 46.2804 48.1341 45.7349 47.689L45.6294 47.5943L33.0005 34.9654L20.3716 47.5943L20.2661 47.689C19.7206 48.1341 18.9153 48.1028 18.4068 47.5943C17.8983 47.0857 17.867 46.2804 18.312 45.7349L18.4068 45.6294L31.0357 33.0005L18.4068 20.3716C17.8644 19.8292 17.8644 18.9492 18.4068 18.4068C18.9491 17.8644 19.8292 17.8644 20.3716 18.4068L33.0005 31.0357L45.6294 18.4068Z" fill="black"/>
</svg>
