<svg width="18" height="16" viewBox="0 0 18 16" fill="none" xmlns="http://www.w3.org/2000/svg">
<path d="M1.60913 0.444824C2.11689 0.44496 2.52808 0.94261 2.52808 1.55615V14.4438C2.52808 15.0574 2.11689 15.555 1.60913 15.5552C1.10129 15.5552 0.689209 15.0575 0.689209 14.4438V1.55615C0.689209 0.942536 1.10129 0.44484 1.60913 0.444824ZM15.3953 1.28271C15.953 0.961521 16.5692 1.01007 17.0515 1.3042C17.5337 1.59841 17.9772 2.21157 17.9773 3.05811V12.9429C17.9771 13.7892 17.5336 14.4016 17.0515 14.6958C16.5692 14.99 15.9531 15.0395 15.3953 14.7183L6.81616 9.77588L6.70776 9.7085C6.18259 9.35262 5.85337 8.71492 5.85327 8.00049C5.85328 7.28587 6.18242 6.6474 6.70776 6.2915L6.81616 6.2251L15.3953 1.28271Z" fill="#AFAFAF"/>
</svg>
