<svg width="30" height="30" viewBox="0 0 30 30" fill="none" xmlns="http://www.w3.org/2000/svg">
<path d="M5.19797 17.4133C4.30672 15.9279 4.30672 14.0721 5.19797 12.5867C5.46995 12.1334 5.92052 11.8159 6.43887 11.7122L8.55516 11.289C8.68124 11.2638 8.79489 11.1961 8.8772 11.0974L12.1708 7.14498C13.3534 5.72592 13.9447 5.01638 14.4723 5.20742C15 5.39846 15 6.32207 15 8.16928L15 21.8307C15 23.6779 15 24.6015 14.4723 24.7926C13.9447 24.9836 13.3534 24.2741 12.1708 22.855L8.8772 18.9026C8.79489 18.8039 8.68124 18.7362 8.55516 18.711L6.43887 18.2878C5.92052 18.1841 5.46995 17.8666 5.19797 17.4133Z" fill="#1E1C59"/>
<path d="M18.1694 10.5806C19.3355 11.7467 19.9935 13.3263 20 14.9754C20.0064 16.6244 19.3609 18.2092 18.2041 19.3845" stroke="#1E1C59" stroke-width="2" stroke-linecap="round"/>
</svg>
