<svg width="27" height="22" viewBox="0 0 27 22" fill="none" xmlns="http://www.w3.org/2000/svg">
<path d="M13.375 -0.000976562C9.189 -0.000976562 3.75586 1.04785 3.75586 1.04785L3.74219 1.06348C1.83566 1.36839 0.375 3.00665 0.375 4.99902V10.999V11.001V16.999V17.001C0.37686 17.9525 0.71787 18.8722 1.3368 19.595C1.95573 20.3177 2.81203 20.7961 3.75195 20.9443L3.75586 20.9502C3.75586 20.9502 9.189 22.001 13.375 22.001C17.561 22.001 22.9941 20.9502 22.9941 20.9502L22.9961 20.9482C23.937 20.8003 24.7943 20.3215 25.4137 19.5979C26.0331 18.8743 26.374 17.9535 26.375 17.001V16.999V11.001V10.999V4.99902C26.3736 4.04715 26.0328 3.12698 25.4138 2.40383C24.7949 1.68069 23.9383 1.20198 22.998 1.05371L22.9941 1.04785C22.9941 1.04785 17.561 -0.000976562 13.375 -0.000976562ZM10.375 6.39746L18.375 10.999L10.375 15.6006V6.39746Z" fill="white"/>
</svg>
