<svg width="22" height="31" viewBox="0 0 22 31" fill="none" xmlns="http://www.w3.org/2000/svg">
<path d="M14 21.9447L10 25.9447L14 29.9447" stroke="#979797" stroke-width="2"/>
<path d="M4.20577 23.6947C3.21517 22.8368 2.8184 21.8395 3.077 20.8573C3.3356 19.8752 4.23511 18.9632 5.63604 18.2627C7.03696 17.5623 8.86101 17.1125 10.8253 16.9832C12.7895 16.8539 14.7842 17.0523 16.5 17.5476C18.2158 18.0429 19.5567 18.8074 20.3149 19.7226C21.0731 20.6378 21.2061 21.6525 20.6933 22.6094C20.1806 23.5662 19.0507 24.4118 17.4789 25.0148C15.9071 25.6178 13.9812 25.9447 12 25.9447" stroke="#979797" stroke-width="2" stroke-linecap="round"/>
<path fill-rule="evenodd" clip-rule="evenodd" d="M10.2899 19.0991V15.6577H5.06199C3.04106 15.6577 1.32766 17.1437 1.04186 19.1443C0.663174 21.7951 2.90868 24.0804 5.56569 23.7482L6.26272 23.6611C8.56343 23.3735 10.2899 21.4177 10.2899 19.0991Z" fill="#979797"/>
<path d="M10.2899 8.15771V7.39334C10.2899 5.37041 10.2899 4.35895 10.8824 3.65959C11.4748 2.96022 12.4725 2.79394 14.468 2.46137L17.4138 1.97039C17.5836 1.9421 17.6685 1.92795 17.7143 1.97756C17.7601 2.02716 17.7392 2.11066 17.6975 2.27762L16.5783 6.75422C16.5597 6.82881 16.5503 6.86611 16.5241 6.89111C16.4979 6.91611 16.4602 6.92365 16.3848 6.93873L10.2899 8.15771ZM10.2899 8.15771V15.6577M10.2899 15.6577V19.0991C10.2899 21.4177 8.56343 23.3735 6.26272 23.6611L5.56569 23.7482C2.90868 24.0804 0.663174 21.7951 1.04186 19.1443C1.32766 17.1437 3.04106 15.6577 5.06199 15.6577H10.2899Z" stroke="#979797" stroke-width="2"/>
</svg>
