<svg width="18" height="16" viewBox="0 0 18 16" fill="none" xmlns="http://www.w3.org/2000/svg">
<path d="M16.4136 0.444824C16.9214 0.444858 17.3335 0.942547 17.3335 1.55615V14.4448C17.3333 15.0583 16.9213 15.5551 16.4136 15.5552C15.9058 15.5552 15.4938 15.0583 15.4937 14.4448V1.55615C15.4937 0.942526 15.9057 0.444824 16.4136 0.444824ZM0.971191 1.3042C1.45352 1.01019 2.06975 0.961458 2.62744 1.28271L11.2065 6.2251L11.314 6.29248C11.8394 6.64837 12.1685 7.28583 12.1685 8.00049C12.1684 8.71507 11.8393 9.35264 11.314 9.7085L11.2065 9.77588L2.62744 14.7183C2.06966 15.0396 1.45356 14.9899 0.971191 14.6958C0.488936 14.4016 0.0454102 13.7886 0.0454102 12.9419V3.05811C0.0454422 2.21147 0.488954 1.59842 0.971191 1.3042Z" fill="#AFAFAF"/>
</svg>
