<svg width="24" height="25" viewBox="0 0 24 25" fill="none" xmlns="http://www.w3.org/2000/svg">
<path d="M7 18.0675C7 18.4763 6.7511 18.844 6.37151 18.9959L4.37151 19.7962C3.71463 20.0591 3 19.5753 3 18.8678V7.0221C3 6.61317 3.24899 6.24544 3.62869 6.0936L5.62869 5.29379C6.28554 5.03111 7 5.51487 7 6.2223V18.0675ZM14.2425 5.90564C14.6877 6.01693 15 6.41692 15 6.87579V18.8142C15 19.4648 14.3886 19.9422 13.7575 19.7844L9.75746 18.7844C9.3123 18.6731 9 18.2731 9 17.8142V5.87579C9 5.22521 9.61139 4.74786 10.2425 4.90564L14.2425 5.90564ZM21 17.6679C21 18.0769 20.751 18.4446 20.3713 18.5964L18.3713 19.3962C17.7145 19.6589 17 19.1751 17 18.4677V6.62171C17 6.21278 17.249 5.84505 17.6287 5.69321L19.6287 4.8934C20.2855 4.63072 21 5.11448 21 5.82191V17.6679Z" fill="#979797"/>
</svg>
