<svg width="30" height="31" viewBox="0 0 30 31" fill="none" xmlns="http://www.w3.org/2000/svg">
<path d="M15.2499 18.8452H11.0213C9.49836 18.8454 8.20758 19.9654 7.99205 21.4731C7.70663 23.471 9.39862 25.194 11.4012 24.9438L12.0985 24.8569L12.2655 24.8315C13.9817 24.5356 15.2499 23.0443 15.2499 21.2866V18.8452ZM20.5926 5.63521C19.5697 5.8057 18.8936 5.9202 18.3944 6.06881C18.04 6.17431 17.8422 6.27831 17.7137 6.38521L17.6053 6.49361C17.4821 6.63904 17.3773 6.85233 17.3163 7.34127C17.2617 7.77825 17.2545 8.33593 17.2528 9.12447L21.6825 8.23873L22.41 5.3315L20.5926 5.63521ZM17.2499 21.2866C17.2499 24.0212 15.2771 26.3415 12.6073 26.8022L12.3465 26.8413L11.6493 26.9282C8.33824 27.3419 5.53993 24.4941 6.01158 21.1909C6.36774 18.6978 8.50296 16.8454 11.0213 16.8452H15.2499V9.58053C15.2499 8.59508 15.2484 7.76347 15.3319 7.0942C15.4189 6.39709 15.6098 5.75454 16.079 5.20064L16.2616 5.00533C16.7002 4.57524 17.2341 4.32722 17.8231 4.15182C18.4697 3.95932 19.2912 3.82462 20.2635 3.66256L23.2088 3.17135C23.2611 3.16264 23.4128 3.13482 23.5526 3.13228C23.6915 3.1298 24.006 3.14644 24.2899 3.37545L24.409 3.48678L24.5106 3.61471C24.716 3.91584 24.7077 4.23039 24.6942 4.36861C24.6873 4.43838 24.6733 4.51075 24.66 4.57174L24.6278 4.70748L23.5086 9.18404C23.5044 9.20106 23.483 9.28909 23.453 9.37154C23.4148 9.47616 23.3374 9.64609 23.1737 9.80221C23.0099 9.95836 22.8366 10.0279 22.7303 10.061L22.5409 10.1069L17.2499 11.1645V21.2866Z" fill="#979797"/>
</svg>
