<svg width="31" height="30" viewBox="0 0 31 30" fill="none" xmlns="http://www.w3.org/2000/svg">
<path d="M18.625 3.75C22.3962 3.75 24.2816 3.7503 25.4531 4.92188C26.6247 6.09345 26.625 7.97876 26.625 11.75V18.25C26.625 22.0212 26.6247 23.9066 25.4531 25.0781C24.2816 26.2497 22.3962 26.25 18.625 26.25H12.125C8.35376 26.25 6.46845 26.2497 5.29688 25.0781C4.1253 23.9066 4.125 22.0212 4.125 18.25V11.75C4.125 7.97876 4.1253 6.09345 5.29688 4.92188C6.46845 3.7503 8.35376 3.75 12.125 3.75H18.625ZM15.375 11.25C12.6136 11.25 10.375 13.4886 10.375 16.25C10.375 19.0114 12.6136 21.25 15.375 21.25C18.1364 21.25 20.375 19.0114 20.375 16.25C20.375 13.4886 18.1364 11.25 15.375 11.25ZM15.375 13.25C17.0319 13.25 18.375 14.5931 18.375 16.25C18.375 17.9069 17.0319 19.25 15.375 19.25C13.7181 19.25 12.375 17.9069 12.375 16.25C12.375 14.5931 13.7181 13.25 15.375 13.25ZM21 7.5C19.9645 7.5 19.125 8.33947 19.125 9.375C19.125 10.4105 19.9645 11.25 21 11.25C22.0355 11.25 22.875 10.4105 22.875 9.375C22.875 8.33947 22.0355 7.5 21 7.5Z" fill="white"/>
</svg>
