<svg width="25" height="24" viewBox="0 0 25 24" fill="none" xmlns="http://www.w3.org/2000/svg">
<path d="M12.375 0C5.75943 0 0.375 5.38443 0.375 12C0.375 18.6156 5.75943 24 12.375 24C18.9906 24 24.375 18.6156 24.375 12C24.375 5.38443 18.9906 0 12.375 0ZM12.375 2C17.9097 2 22.375 6.46531 22.375 12C22.375 17.0274 18.6867 21.1613 13.8633 21.8789V14.916H16.7109L17.1582 12.0234H13.8633V10.4434C13.8633 9.24236 14.2579 8.17578 15.3809 8.17578H17.1855V5.65234C16.8685 5.60934 16.1977 5.51562 14.9297 5.51562C12.2817 5.51562 10.7305 6.91361 10.7305 10.0996V12.0234H8.00781V14.916H10.7305V21.8535C5.98386 21.0706 2.375 16.973 2.375 12C2.375 6.46531 6.84031 2 12.375 2Z" fill="white"/>
</svg>
