<svg width="34" height="28" viewBox="0 0 34 28" fill="none" xmlns="http://www.w3.org/2000/svg">
<path d="M22.7891 4.40937C23.1643 4.38866 23.6406 4.42616 24.0723 4.73749L24.1573 4.8039L24.2393 4.87519C24.629 5.2375 24.7603 5.6967 24.8135 6.06855C24.8661 6.4362 24.8633 6.89058 24.8633 7.34101V21.3439C24.8633 21.6532 24.8652 21.9829 24.8311 22.2609C24.7957 22.5491 24.7116 22.8895 24.4756 23.2062L24.4268 23.2697C24.1528 23.604 23.8107 23.7671 23.5166 23.8644C23.3838 23.9084 23.2367 23.9464 23.085 23.9807L22.6241 24.0764L19.8028 24.6398C19.361 24.7282 18.9158 24.8205 18.545 24.841C18.1698 24.8617 17.6935 24.8232 17.2617 24.5119L17.1758 24.4455C16.7225 24.0737 16.5773 23.5775 16.5205 23.1809C16.4679 22.8132 16.4707 22.3588 16.4707 21.9084V19.1818C16.4721 18.9003 16.4784 18.6219 16.5108 18.381C16.5581 18.0289 16.6776 17.6011 17.0352 17.2434L17.1026 17.1789C17.4456 16.8708 17.8426 16.7634 18.1729 16.7189C18.4139 16.6865 18.6928 16.6803 18.9746 16.6789H22.7207V12.8068L12.3633 14.8781V23.8449C12.3633 24.1542 12.3652 24.4839 12.3311 24.7619C12.2957 25.05 12.2117 25.3906 11.9756 25.7072L11.9258 25.7697C11.6518 26.1038 11.3106 26.2672 11.0166 26.3644C10.8837 26.4084 10.7359 26.4464 10.584 26.4807L10.1241 26.5754L7.30276 27.1408C6.86102 27.2292 6.4158 27.3205 6.04495 27.341C5.66978 27.3617 5.19353 27.3233 4.76175 27.0119L4.67679 26.9455C4.22313 26.5736 4.07732 26.0776 4.02054 25.6809C3.96793 25.3131 3.97073 24.8589 3.97073 24.4084V21.9641C3.97073 21.5904 3.96858 21.2024 4.01175 20.881C4.0591 20.5289 4.17756 20.1011 4.53519 19.7434L4.60355 19.6789C4.94653 19.371 5.34275 19.2633 5.67288 19.2189C5.99416 19.1758 6.38227 19.1779 6.75589 19.1779H10.2207V9.15546C10.2207 8.84621 10.2189 8.51652 10.253 8.23847C10.2907 7.93109 10.3834 7.56387 10.6573 7.22968L10.71 7.16913C10.9743 6.87546 11.2917 6.72618 11.5674 6.63495C11.8334 6.54698 12.1567 6.48467 12.46 6.42402L21.5313 4.60956C21.973 4.52121 22.4182 4.42989 22.7891 4.40937ZM7.53128 21.3225L7.40042 21.3283C6.76586 21.3915 6.2557 21.8659 6.1387 22.4826L6.12015 22.6086C6.1145 22.6657 6.11331 22.7479 6.11331 23.0656L6.11526 23.4562C6.11659 23.5365 6.11853 23.5777 6.1221 23.6096L6.13187 23.6809C6.25112 24.4135 6.91655 24.9374 7.66409 24.8732L7.72269 24.8664C7.74655 24.8628 7.77626 24.8579 7.81546 24.8508L8.19925 24.7756L8.56937 24.7014C9.08532 24.5982 9.21319 24.5685 9.30667 24.5324L9.39358 24.4963C9.81653 24.3 10.1188 23.9078 10.1992 23.4445L10.21 23.3586C10.2183 23.2555 10.2207 23.083 10.2207 22.6877V21.3215H7.85745C7.69842 21.3215 7.5985 21.3214 7.53128 21.3225ZM20.0313 18.8225L19.9004 18.8283C19.2657 18.8915 18.7555 19.3666 18.6387 19.9836L18.6201 20.1086C18.6145 20.1658 18.6133 20.2474 18.6133 20.5656L18.6153 20.9562C18.6166 21.0366 18.6185 21.0776 18.6221 21.1096L18.6319 21.1809C18.7512 21.9134 19.4166 22.4373 20.1641 22.3732L20.2227 22.3664C20.2467 22.3628 20.2769 22.358 20.3164 22.3508L20.6992 22.2756L21.0694 22.2014C21.586 22.098 21.7141 22.0686 21.8076 22.0324L21.8936 21.9963C22.3164 21.8 22.6188 21.4076 22.6992 20.9445L22.71 20.8586C22.7183 20.7555 22.7207 20.5831 22.7207 20.1877V18.8215H20.3575C20.1984 18.8215 20.0985 18.8214 20.0313 18.8225ZM2.07425 11.8459C2.15785 11.3823 2.77798 11.2808 3.00491 11.6935L3.71976 12.9943C3.79244 13.1262 3.92113 13.2186 4.06937 13.2453L5.52933 13.508C5.99288 13.5916 6.09437 14.2117 5.68167 14.4387L4.38089 15.1535C4.24887 15.2262 4.15666 15.3548 4.12991 15.5031L3.86624 16.9631C3.78265 17.4266 3.1635 17.5282 2.93655 17.1154L2.22171 15.8146C2.14905 15.6826 2.0204 15.5904 1.8721 15.5637L0.41214 15.301C-0.0514409 15.2174 -0.152997 14.5972 0.259796 14.3703L1.5596 13.6555C1.69173 13.5828 1.78479 13.4542 1.81155 13.3059L2.07425 11.8459ZM21.0977 6.98749C20.564 7.01703 19.8965 7.129 18.9991 7.30292L18.0215 7.49628L15.5215 7.99628C14.5331 8.19397 13.8871 8.32544 13.4121 8.48261C13.0215 8.61191 12.8408 8.73047 12.7305 8.84492L12.6875 8.89374C12.5811 9.02356 12.4832 9.21855 12.4258 9.68574C12.3649 10.1823 12.3633 10.8412 12.3633 11.8488V12.6926L22.7188 10.6213C22.7155 9.56879 22.7001 8.8124 22.6172 8.23261C22.5204 7.55638 22.358 7.3263 22.1973 7.19452C22.0366 7.06289 21.7795 6.9498 21.0977 6.98749ZM27.4502 9.15742C27.7035 8.76057 28.3147 8.90164 28.3682 9.36933L28.4034 9.67695C28.4205 9.82653 28.504 9.96017 28.6309 10.0412L28.8916 10.2082C29.2883 10.4616 29.1466 11.0729 28.6787 11.1262L28.3721 11.1613C28.2223 11.1784 28.0879 11.2617 28.0069 11.3889L27.8409 11.6496C27.5875 12.0465 26.9761 11.9047 26.9229 11.4367L26.8877 11.1301C26.8707 10.9803 26.7872 10.8459 26.6602 10.7648L26.3994 10.5988C26.0024 10.3456 26.1436 9.73437 26.6114 9.68085L26.919 9.6457C27.0685 9.62858 27.2022 9.54493 27.2832 9.41816L27.4502 9.15742ZM28.2744 0.764837C28.496 -0.150777 29.7459 -0.2802 30.1504 0.570501L30.751 1.83613C30.8804 2.10836 31.1261 2.30807 31.419 2.37909L32.7813 2.70917C33.6969 2.9308 33.8264 4.17974 32.9756 4.58417L31.71 5.18574C31.4376 5.31517 31.238 5.5606 31.167 5.8537L30.8379 7.21503C30.6163 8.13072 29.3663 8.26029 28.9619 7.40937L28.3614 6.14374C28.232 5.87149 27.9863 5.67179 27.6934 5.60077L26.3311 5.27167C25.4156 5.05012 25.2863 3.80127 26.1367 3.39667L27.4024 2.79511C27.6747 2.66572 27.8743 2.42011 27.9453 2.12714L28.2744 0.764837Z" fill="#979797"/>
</svg>
