<svg width="21" height="21" viewBox="0 0 21 21" fill="none" xmlns="http://www.w3.org/2000/svg">
<path d="M11.4531 0.108822C11.7488 -0.0685265 12.1387 -0.0288558 12.3936 0.226009C12.6842 0.517264 12.6928 0.983566 12.4199 1.28558L12.415 1.29046L12.3984 1.30804L7.32227 6.38519H17.5762C19.1938 6.38519 20.5058 7.69629 20.5059 9.3139V17.6703C20.5058 19.288 19.1938 20.6 17.5762 20.6H2.92871C1.31112 20.5999 3.27219e-05 19.2879 0 17.6703V9.3139C9.588e-05 7.69635 1.31116 6.38528 2.92871 6.38519H5.14453L11.3105 0.22015L11.3281 0.203548L11.333 0.198665L11.4531 0.108822ZM17.8457 20.2866L18.0742 20.2534C18.0818 20.2519 18.0891 20.249 18.0967 20.2475C18.0143 20.264 17.9307 20.2779 17.8457 20.2866ZM17.7295 19.352H17.7471C17.7612 19.3506 17.775 19.3469 17.7891 19.3451C17.7693 19.3477 17.7495 19.3502 17.7295 19.352ZM17.8535 19.3364C17.8686 19.3339 17.8835 19.3314 17.8984 19.3285C17.8835 19.3314 17.8686 19.3339 17.8535 19.3364ZM17.9746 19.3119C17.9996 19.3059 18.0243 19.2995 18.0488 19.2924C18.0243 19.2996 17.9996 19.3059 17.9746 19.3119ZM2.92871 7.92425C2.16111 7.92435 1.53916 8.5463 1.53906 9.3139V17.7065L1.5498 17.8461C1.63598 18.5309 2.22045 19.0609 2.92871 19.061H17.5762C18.3307 19.061 18.9449 18.4597 18.9658 17.7104L18.9668 17.6703V9.3139C18.9667 8.54624 18.3439 7.92425 17.5762 7.92425H2.92871ZM18.9492 18.6557L18.9639 18.6371C18.9832 18.6095 18.9999 18.5801 19.0176 18.5512C18.9958 18.5868 18.9732 18.6217 18.9492 18.6557ZM0.34668 18.1684C0.348122 18.1759 0.350056 18.1833 0.351562 18.1909C0.335035 18.1085 0.322113 18.0248 0.313477 17.9399L0.34668 18.1684ZM1.25195 17.8832C1.2543 17.902 1.25876 17.9203 1.26172 17.9389C1.25819 17.9168 1.25364 17.8948 1.25098 17.8725L1.25195 17.8832ZM6.49707 10.1586C8.31201 10.1587 9.7832 11.6308 9.7832 13.4457C9.78306 15.2606 8.31192 16.7318 6.49707 16.7319C4.68216 16.7319 3.21109 15.2606 3.21094 13.4457C3.21094 11.6307 4.68207 10.1586 6.49707 10.1586ZM16.7314 14.7602C16.9907 14.7602 17.2012 14.9706 17.2012 15.2299C17.2009 15.489 16.9906 15.6987 16.7314 15.6987H12.3184C12.0593 15.6986 11.8489 15.489 11.8486 15.2299C11.8486 14.9707 12.0591 14.7603 12.3184 14.7602H16.7314ZM6.49707 11.5678C5.45993 11.5678 4.61914 12.4086 4.61914 13.4457C4.61929 14.4828 5.46002 15.3237 6.49707 15.3237C7.53406 15.3236 8.37485 14.4827 8.375 13.4457C8.375 12.4086 7.53415 11.5679 6.49707 11.5678ZM16.7314 11.2856C16.9907 11.2856 17.2012 11.496 17.2012 11.7553C17.2012 12.0146 16.9907 12.225 16.7314 12.225H12.3184C12.0591 12.225 11.8486 12.0145 11.8486 11.7553C11.8486 11.4961 12.0591 11.2856 12.3184 11.2856H16.7314ZM0.417969 8.53167C0.366666 8.69651 0.331441 8.86837 0.313477 9.04535L0.353516 8.7846C0.37101 8.69905 0.392383 8.61496 0.417969 8.53265V8.53167ZM20.0879 8.53265C20.139 8.69719 20.1745 8.86871 20.1924 9.04535L20.1523 8.78363C20.1348 8.69809 20.1135 8.61396 20.0879 8.53167V8.53265ZM18.9775 8.36859C19.008 8.41365 19.0364 8.46022 19.0625 8.50824L18.9785 8.36859C18.9481 8.32363 18.9153 8.28044 18.8809 8.2387L18.9775 8.36859ZM2.39844 6.7387C2.3132 6.75617 2.22947 6.77766 2.14746 6.80316L2.39941 6.7387C2.48491 6.72122 2.57185 6.70763 2.66016 6.69867L2.39844 6.7387ZM12.2861 0.936947C12.266 0.989606 12.2371 1.04037 12.1973 1.08441L8.99219 4.28949L12.1982 1.08441L12.252 1.01117C12.2661 0.987603 12.2765 0.96215 12.2861 0.936947ZM12.1094 0.37933C12.1346 0.39617 12.1584 0.415689 12.1807 0.437923C12.2234 0.480668 12.2565 0.52924 12.2793 0.581478C12.2684 0.556401 12.2558 0.531467 12.2402 0.508236L12.1816 0.437923C12.1372 0.393496 12.0858 0.359238 12.0312 0.336361L12.1094 0.37933Z" fill="#979797"/>
</svg>
