<svg width="20" height="20" viewBox="0 0 20 20" fill="none" xmlns="http://www.w3.org/2000/svg">
<path d="M3.33325 14.9999L2.62614 14.2928L1.91904 14.9999L2.62614 15.707L3.33325 14.9999ZM16.8333 10.8333C16.8333 10.281 16.3855 9.83325 15.8333 9.83325C15.281 9.83325 14.8333 10.281 14.8333 10.8333L16.8333 10.8333ZM6.66659 11.6666L5.95948 10.9595L2.62614 14.2928L3.33325 14.9999L4.04036 15.707L7.37369 12.3737L6.66659 11.6666ZM3.33325 14.9999L2.62614 15.707L5.95948 19.0404L6.66658 18.3333L7.37369 17.6261L4.04036 14.2928L3.33325 14.9999ZM3.33325 14.9999L3.33325 15.9999L11.8333 15.9999L11.8333 14.9999L11.8333 13.9999L3.33325 13.9999L3.33325 14.9999ZM15.8333 10.9999L16.8333 10.9999L16.8333 10.8333L15.8333 10.8333L14.8333 10.8333L14.8333 10.9999L15.8333 10.9999ZM11.8333 14.9999L11.8333 15.9999C14.5947 15.9999 16.8333 13.7613 16.8333 10.9999L15.8333 10.9999L14.8333 10.9999C14.8333 12.6568 13.4901 13.9999 11.8333 13.9999L11.8333 14.9999Z" fill="#AFAFAF"/>
<path d="M16.6667 5.00008L17.3739 5.70719L18.081 5.00008L17.3739 4.29297L16.6667 5.00008ZM3.16675 9.16675C3.16675 9.71903 3.61446 10.1667 4.16675 10.1667C4.71903 10.1667 5.16675 9.71903 5.16675 9.16675L3.16675 9.16675ZM13.3334 8.33341L14.0405 9.04052L17.3739 5.70719L16.6667 5.00008L15.9596 4.29297L12.6263 7.62631L13.3334 8.33341ZM16.6667 5.00008L17.3739 4.29297L14.0405 0.95964L13.3334 1.66675L12.6263 2.37385L15.9596 5.70719L16.6667 5.00008ZM16.6667 5.00008L16.6667 4.00008L8.16675 4.00008L8.16675 5.00008L8.16675 6.00008L16.6667 6.00008L16.6667 5.00008ZM4.16675 9.00008L3.16675 9.00008L3.16675 9.16675L4.16675 9.16675L5.16675 9.16675L5.16675 9.00008L4.16675 9.00008ZM8.16675 5.00008L8.16675 4.00008C5.40532 4.00008 3.16675 6.23866 3.16675 9.00008L4.16675 9.00008L5.16675 9.00008C5.16675 7.34323 6.50989 6.00008 8.16675 6.00008L8.16675 5.00008Z" fill="#AFAFAF"/>
</svg>
