<svg width="30" height="30" viewBox="0 0 30 30" fill="none" xmlns="http://www.w3.org/2000/svg">
<path d="M4.56916 7.03956C7.45219 3.79127 12.6128 4.1951 14.9998 7.70264C17.4698 4.07315 22.9095 3.7676 25.7225 7.3921L26.1092 7.8921L26.3319 8.19093C28.4664 11.2297 28.1404 15.3666 25.5574 18.0347L25.2928 18.2954L16.6014 26.4595C16.47 26.5829 16.3069 26.7392 16.1502 26.8599C15.9984 26.9768 15.779 27.1209 15.4891 27.2017L15.3612 27.2329C15.1826 27.2679 14.9997 27.2758 14.8192 27.2583L14.6385 27.2329C14.284 27.1633 14.0239 26.9935 13.8504 26.8599C13.772 26.7995 13.6911 26.7311 13.6141 26.6616L13.3983 26.4595L4.70685 18.2954C1.79252 15.557 1.43922 11.0519 3.89045 7.8921L4.27717 7.3921L4.56916 7.03956Z" fill="#979797"/>
</svg>
