<svg width="20" height="20" viewBox="0 0 20 20" fill="none" xmlns="http://www.w3.org/2000/svg">
<path d="M2.5 5.83325H3.9832C5.29586 5.83325 5.95218 5.83325 6.5214 6.00642C7.40869 6.27635 8.17462 6.84622 8.68813 7.61853C9.01755 8.11398 9.20615 8.74263 9.58333 9.99992V9.99992C9.96052 11.2572 10.1491 11.8859 10.4785 12.3813C10.992 13.1536 11.758 13.7235 12.6453 13.9934C13.2145 14.1666 13.8708 14.1666 15.1835 14.1666H17.5M17.5 14.1666L15 11.6666M17.5 14.1666L15 16.6666" stroke="#AFAFAF" stroke-width="2"/>
<path d="M7.62695 12.124C7.83014 12.712 8.06643 13.2692 8.39648 13.7656L8.55762 13.9971C8.55894 13.9989 8.5602 14.0011 8.56152 14.0029C8.106 14.3834 7.58449 14.6824 7.01855 14.8818L6.8125 14.9502C6.06644 15.1771 5.22909 15.166 3.9834 15.166H2.5L2.5 13.166H3.9834C5.36274 13.166 5.83816 13.1555 6.23047 13.0361L6.47559 12.9502C6.92083 12.7713 7.31427 12.4867 7.62695 12.124ZM18.9141 5.83301L15.707 9.04004L14.293 7.62598L15.085 6.83301C13.9481 6.83349 13.4512 6.84316 13.0889 6.92285L12.9365 6.96289C12.3912 7.12879 11.9081 7.4472 11.5391 7.875C11.3584 7.35258 11.1517 6.85414 10.876 6.40137L10.7695 6.23437C10.7158 6.15361 10.6606 6.07409 10.6035 5.99609C11.1142 5.5697 11.7088 5.24623 12.3545 5.0498L12.6387 4.97461C13.2954 4.82907 14.0467 4.83268 15.0859 4.83301L14.293 4.04004L15.707 2.62598L18.9141 5.83301Z" fill="#AFAFAF"/>
</svg>
