<svg width="30" height="31" viewBox="0 0 30 31" fill="none" xmlns="http://www.w3.org/2000/svg">
<path d="M21.4502 10.9447C23.1302 10.9447 23.9706 10.9449 24.6123 11.2719C25.1765 11.5594 25.6353 12.0182 25.9229 12.5824C26.2498 13.2241 26.25 14.0645 26.25 15.7445V19.8949C26.25 21.5749 26.2498 22.4153 25.9229 23.057C25.6353 23.6212 25.1765 24.08 24.6123 24.3676C23.9706 24.6945 23.1302 24.6947 21.4502 24.6947H8.5498C6.86978 24.6947 6.02941 24.6945 5.3877 24.3676C4.82347 24.08 4.36472 23.6212 4.07715 23.057C3.75018 22.4153 3.75 21.5749 3.75 19.8949V10.9447H21.4502ZM12.7363 13.8129C11.9386 13.4143 11.0002 13.9943 11 14.8861V21.0033C11.0002 21.8951 11.9386 22.4751 12.7363 22.0765L19.2109 18.8392C19.948 18.4707 19.948 17.4187 19.2109 17.0502L12.7363 13.8129Z" fill="#979797"/>
<path d="M3.75 9.6947C3.75 8.05096 3.75 7.22909 4.20398 6.67592C4.28709 6.57465 4.37995 6.48179 4.48121 6.39868C5.03439 5.9447 5.85626 5.9447 7.5 5.9447H10.8431C11.6606 5.9447 12.0694 5.9447 12.4369 6.09694C12.8045 6.24918 13.0935 6.53821 13.6716 7.11627L16.25 9.6947H3.75Z" fill="#979797"/>
</svg>
