<svg width="27" height="30" viewBox="0 0 27 30" fill="none" xmlns="http://www.w3.org/2000/svg">
<path d="M5.36389 0C7.78648 6.82896e-05 9.75061 1.96411 9.75061 4.38672V25.6133C9.75061 28.0359 7.78648 29.9999 5.36389 30C2.94124 30 0.977173 28.0359 0.977173 25.6133V4.38672C0.977173 1.96407 2.94124 0 5.36389 0ZM21.6588 0C24.0814 4.04587e-05 26.0455 1.9641 26.0455 4.38672V25.6133C26.0455 28.0359 24.0814 30 21.6588 30C19.2362 30 17.2721 28.0359 17.2721 25.6133V4.38672C17.2721 1.96407 19.2362 0 21.6588 0Z" fill="#565656"/>
</svg>
