<svg width="20" height="20" viewBox="0 0 20 20" fill="none" xmlns="http://www.w3.org/2000/svg">
<path d="M3.46532 11.6089C2.87114 10.6186 2.87114 9.38143 3.46532 8.39114C3.64663 8.08895 3.94701 7.87726 4.29258 7.80815L5.70344 7.52598C5.78749 7.50917 5.86326 7.46409 5.91814 7.39824L7.17085 5.89498C8.3534 4.47592 8.94468 3.76638 9.47234 3.95742C10 4.14846 10 5.07207 10 6.91928L10 13.0807C10 14.9279 10 15.8515 9.47234 16.0426C8.94468 16.2336 8.3534 15.5241 7.17085 14.105L5.91814 12.6018C5.86326 12.5359 5.78749 12.4908 5.70344 12.474L4.29258 12.1918C3.94701 12.1227 3.64663 11.9111 3.46532 11.6089Z" fill="#1E1C59"/>
<path d="M12.1129 7.05364C12.8903 7.83102 13.329 8.88413 13.3333 9.9835C13.3376 11.0829 12.9073 12.1394 12.1361 12.9229" stroke="#1E1C59" stroke-width="2" stroke-linecap="round"/>
<path d="M15.5475 5.28587C16.7913 6.52968 17.4931 8.21466 17.5 9.97366C17.507 11.7327 16.8184 13.4231 15.5845 14.6767" stroke="#1E1C59" stroke-width="2" stroke-linecap="round"/>
</svg>
