<svg width="41" height="41" viewBox="0 0 41 41" fill="none" xmlns="http://www.w3.org/2000/svg">
<path d="M20.5 0C31.8218 2.57703e-07 41 9.17816 41 20.5C41 28.9338 35.9062 36.1762 28.6279 39.3232L28.626 39.3301L28.6191 39.3271C26.1292 40.4024 23.3846 41 20.5 41C9.17816 41 2.5772e-07 31.8218 0 20.5C0 9.17816 9.17816 0 20.5 0ZM20.5 2.0498C11.8171 2.0498 4.536 8.04823 2.57227 16.127L7.49512 15.3066C10.8551 14.7472 13.7835 17.5526 13.4375 20.8818L13.3936 21.2041L13.1172 22.8604C12.6977 25.3785 13.9686 27.8768 16.252 29.0186C18.8323 30.3088 20.1703 33.2178 19.4707 36.0166L18.7578 38.8672C19.3314 38.9209 19.9124 38.9502 20.5 38.9502C22.8073 38.9502 25.0149 38.5245 27.0508 37.751L27.9473 35.5107C28.4614 34.2251 28.7992 32.8752 28.9521 31.499L28.9922 31.1299C29.4137 27.3323 27.884 23.5798 24.9268 21.1602L20.8262 17.8057C19.2857 16.5451 18.8248 14.3849 19.7148 12.6045C20.4362 11.1621 21.9107 10.2503 23.5234 10.25H30.4082C31.0733 10.2499 31.7218 10.0348 32.2539 9.63574L34.2168 8.16211C30.8396 4.40991 25.9457 2.0498 20.5 2.0498ZM11.4111 20.4814C11.4909 18.5699 9.78291 17.0042 7.83203 17.3291L2.18457 18.2695C2.09645 19.0008 2.0498 19.745 2.0498 20.5C2.0498 29.3943 8.34387 36.8176 16.7207 38.5615L17.4834 35.5186C17.9498 33.6519 17.0559 31.712 15.335 30.8516C12.2467 29.3072 10.5271 25.9274 11.0947 22.5215L11.3711 20.8682L11.4111 20.4814ZM33.4824 11.2754C32.5956 11.9402 31.5166 12.2997 30.4082 12.2998H23.5234C22.687 12.3001 21.9209 12.7733 21.5469 13.5215C21.0856 14.4449 21.3271 15.5641 22.126 16.2178L26.2256 19.5732C29.7207 22.4331 31.5289 26.8699 31.0303 31.3584L30.9902 31.7246C30.8169 33.2847 30.4326 34.816 29.8496 36.2734L29.7783 36.4492C35.2633 33.2515 38.9502 27.3068 38.9502 20.5C38.9502 16.493 37.6717 12.7851 35.502 9.75977L33.4824 11.2754Z" fill="#1E1C59"/>
</svg>
