<svg width="60" height="50" viewBox="0 0 60 50" fill="none" xmlns="http://www.w3.org/2000/svg">
<path d="M51.4286 5L51.612 5.00684C53.4992 5.14053 55 7.32472 55 10C55 12.6753 53.4992 14.8595 51.612 14.9932L51.4286 15H8.57143C6.59898 15 5 12.7614 5 10C5 7.23858 6.59898 5 8.57143 5H51.4286Z" fill="#1E1C59"/>
<path d="M51.4286 20L51.612 20.0068C53.4992 20.1405 55 22.3247 55 25C55 27.6753 53.4992 29.8595 51.612 29.9932L51.4286 30H8.57143C6.59898 30 5 27.7614 5 25C5 22.2386 6.59898 20 8.57143 20H51.4286Z" fill="#1E1C59"/>
<path d="M51.4286 35L51.612 35.0068C53.4992 35.1405 55 37.3247 55 40C55 42.6753 53.4992 44.8595 51.612 44.9932L51.4286 45H8.57143C6.59898 45 5 42.7614 5 40C5 37.2386 6.59898 35 8.57143 35H51.4286Z" fill="#1E1C59"/>
</svg>
