<svg width="40" height="40" viewBox="0 0 40 40" fill="none" xmlns="http://www.w3.org/2000/svg">
<path d="M14.2979 0.00012207C22.1941 0.00025161 28.5957 6.40183 28.5957 14.298C28.5956 17.3844 27.6162 20.2417 25.9531 22.5782L39.5225 37.0363L39.5801 37.1007C40.1581 37.7822 40.139 38.8345 39.5225 39.4913C38.9059 40.1482 37.918 40.1688 37.2783 39.5529L37.2178 39.4913L23.6885 25.0773C21.1764 27.2675 17.8924 28.5948 14.2979 28.5948C6.40166 28.5948 0.000253455 22.194 0 14.298C0 6.40175 6.4015 0.00012207 14.2979 0.00012207ZM14.2979 3.36438C8.25946 3.36438 3.36426 8.25968 3.36426 14.298C3.36451 20.3361 8.25962 25.2306 14.2979 25.2306C20.336 25.2305 25.2312 20.336 25.2314 14.298C25.2314 8.25976 20.3361 3.36451 14.2979 3.36438Z" fill="#1E1C59"/>
</svg>
