<svg width="50" height="51" viewBox="0 0 50 51" fill="none" xmlns="http://www.w3.org/2000/svg">
<path d="M28.9326 4.92578L29.6037 4.18439L29.6036 4.18431L28.9326 4.92578ZM29.3467 6.46875L28.3516 6.56807L28.3516 6.56816L29.3467 6.46875ZM29.6631 9.63574L30.6581 9.53643L30.6581 9.53633L29.6631 9.63574ZM30.46 12.3154L30.077 13.2392L30.0772 13.2393L30.46 12.3154ZM32.9189 10.9844L32.2859 10.2103L32.2858 10.2104L32.9189 10.9844ZM35.3848 8.96777L36.0178 9.74187L36.0179 9.74178L35.3848 8.96777ZM36.7676 8.1709L36.8174 7.17214L36.8172 7.17213L36.7676 8.1709ZM38.0645 9.10156L38.7716 8.39446L38.0645 9.10156ZM42.3291 13.7324L43.3279 13.6829L43.3279 13.6826L42.3291 13.7324ZM41.5312 15.1152L40.7573 14.4819L40.7573 14.482L41.5312 15.1152ZM39.5156 17.5791L40.2895 18.2124L40.2896 18.2123L39.5156 17.5791ZM38.1846 20.0381L37.2606 20.4207L37.2607 20.4207L38.1846 20.0381ZM40.8643 20.8359L40.9639 19.8409L40.9638 19.8409L40.8643 20.8359ZM44.0322 21.1533L43.9325 22.1483L43.9327 22.1484L44.0322 21.1533ZM45.5742 21.5674L46.3158 20.8965L46.3157 20.8964L45.5742 21.5674ZM45.833 23.1426L46.833 23.1426L45.833 23.1426ZM45.5742 29.4326L46.3156 30.1037L46.3157 30.1035L45.5742 29.4326ZM44.0322 29.8467L44.1316 30.8417L44.1317 30.8417L44.0322 29.8467ZM40.8652 30.1631L40.7658 29.168L40.7658 29.168L40.8652 30.1631ZM38.1855 30.9609L37.2619 30.5778L37.2617 30.5782L38.1855 30.9609ZM39.5156 33.4199L40.2896 32.7867L40.2895 32.7866L39.5156 33.4199ZM41.5312 35.8838L40.7573 36.517L40.7573 36.5171L41.5312 35.8838ZM42.3291 37.2666L43.3279 37.3164L43.3279 37.3161L42.3291 37.2666ZM36.7676 42.8281L36.8172 43.8269L36.8174 43.8269L36.7676 42.8281ZM35.3848 42.0303L36.018 41.2563L36.0178 41.2562L35.3848 42.0303ZM32.9199 40.0146L32.2867 40.7886L32.2869 40.7888L32.9199 40.0146ZM30.4609 38.6836L30.0782 37.7597L30.0781 37.7598L30.4609 38.6836ZM29.6631 41.3633L28.668 41.2639L28.668 41.2639L29.6631 41.3633ZM29.3467 44.5322L30.3417 44.6316L30.3417 44.6316L29.3467 44.5322ZM28.9326 46.0742L29.6035 46.8157L29.6037 46.8156L28.9326 46.0742ZM22.6426 46.333V47.333V46.333ZM21.0674 46.0742L20.3964 46.8157L20.3965 46.8158L21.0674 46.0742ZM20.6533 44.5322L21.6484 44.4327L21.6483 44.4325L20.6533 44.5322ZM20.3359 41.3643L19.3409 41.4638L19.3409 41.4639L20.3359 41.3643ZM19.5381 38.6846L19.9207 37.7607L19.9207 37.7606L19.5381 38.6846ZM17.0791 40.0156L17.7123 40.7896L17.7124 40.7895L17.0791 40.0156ZM14.6152 42.0312L13.982 41.2573L13.9819 41.2573L14.6152 42.0312ZM13.2324 42.8291L13.1826 43.8279L13.1829 43.8279L13.2324 42.8291ZM8.60156 38.5645L7.89446 39.2716L8.60156 38.5645ZM7.6709 37.2676L6.67213 37.3172L6.67214 37.3174L7.6709 37.2676ZM8.46777 35.8848L7.6938 35.2515L7.69376 35.2516L8.46777 35.8848ZM10.4844 33.4199L11.2583 34.0531L11.2584 34.0531L10.4844 33.4199ZM11.8145 30.9609L12.7383 30.5782L12.7383 30.5781L11.8145 30.9609ZM9.13477 30.1631L9.2342 29.168L9.23418 29.168L9.13477 30.1631ZM5.96777 29.8467L5.86834 30.8417L5.86836 30.8417L5.96777 29.8467ZM4.42578 29.4326L3.68425 30.1035L3.68435 30.1036L4.42578 29.4326ZM4.16699 23.1426H3.16699H4.16699ZM4.42578 21.5674L3.68432 20.8964L3.6842 20.8965L4.42578 21.5674ZM5.96777 21.1533L6.06731 22.1484L6.06746 22.1483L5.96777 21.1533ZM9.13574 20.8359L9.03621 19.8409L9.03606 19.8409L9.13574 20.8359ZM11.8154 20.0381L12.7393 20.4208L12.7393 20.4207L11.8154 20.0381ZM10.4854 17.5791L9.71138 18.2123L9.71139 18.2123L10.4854 17.5791ZM8.46875 15.1143L9.24272 14.481L9.24271 14.481L8.46875 15.1143ZM7.6709 13.7314L6.67214 13.6816L6.67213 13.6819L7.6709 13.7314ZM13.2324 8.16992L13.1829 7.17115L13.1826 7.17116L13.2324 8.16992ZM14.6152 8.96777L13.9819 9.74169L13.982 9.74177L14.6152 8.96777ZM17.0791 10.9834L17.7124 10.2095L17.7123 10.2094L17.0791 10.9834ZM19.5381 12.3145L19.9206 13.2384L19.9207 13.2384L19.5381 12.3145ZM20.3359 9.63477L19.3409 9.53505L19.3409 9.53522L20.3359 9.63477ZM20.6533 6.46777L21.6483 6.56749L21.6484 6.56732L20.6533 6.46777ZM21.0674 4.92578L20.3965 4.18419L20.3964 4.18431L21.0674 4.92578ZM22.6426 4.66699L22.6426 3.66699L22.6426 4.66699ZM25 17.167L25 16.167H25V17.167ZM16.667 25.5L15.667 25.5L15.667 25.5L16.667 25.5ZM25 33.833L25 34.833L25 34.833L25 33.833ZM33.333 25.5L34.333 25.5V25.5H33.333ZM27.3564 4.66699V5.66699C27.8132 5.66699 28.06 5.669 28.232 5.6912C28.3757 5.70976 28.3283 5.72754 28.2616 5.66725L28.9326 4.92578L29.6036 4.18431C29.2513 3.86547 28.8459 3.75387 28.488 3.70766C28.1584 3.66511 27.76 3.66699 27.3564 3.66699V4.66699ZM28.9326 4.92578L28.2615 5.66717C28.1948 5.60677 28.2078 5.55773 28.2406 5.69904C28.2798 5.86807 28.3063 6.11352 28.3516 6.56807L29.3467 6.46875L30.3417 6.36943C30.3017 5.96788 30.264 5.57116 30.1889 5.24738C30.1074 4.89588 29.9561 4.5034 29.6037 4.18439L28.9326 4.92578ZM29.3467 6.46875L28.3516 6.56816L28.668 9.73515L29.6631 9.63574L30.6581 9.53633L30.3417 6.36934L29.3467 6.46875ZM29.6631 9.63574L28.668 9.73506C28.7462 10.5178 28.8135 11.2198 28.9455 11.7457C29.0779 12.2728 29.3502 12.9379 30.077 13.2392L30.46 12.3154L30.8429 11.3917C31.0171 11.4639 30.9725 11.6057 30.8853 11.2586C30.7978 10.9103 30.743 10.387 30.6581 9.53643L29.6631 9.63574ZM30.46 12.3154L30.0772 13.2393C30.8043 13.5406 31.4673 13.2628 31.9337 12.9837C32.399 12.7053 32.9432 12.2565 33.5521 11.7584L32.9189 10.9844L32.2858 10.2104C31.624 10.7518 31.215 11.0831 30.9067 11.2675C30.5996 11.4513 30.6685 11.3194 30.8428 11.3916L30.46 12.3154ZM32.9189 10.9844L33.552 11.7585L36.0178 9.74187L35.3848 8.96777L34.7517 8.19368L32.2859 10.2103L32.9189 10.9844ZM35.3848 8.96777L36.0179 9.74178C36.3711 9.45288 36.5632 9.2984 36.7101 9.20688C36.8328 9.13046 36.8074 9.17411 36.718 9.16967L36.7676 8.1709L36.8172 7.17213C36.3431 7.14857 35.959 7.31852 35.6527 7.50925C35.3708 7.68488 35.0638 7.93839 34.7516 8.19377L35.3848 8.96777ZM36.7676 8.1709L36.7177 9.16966C36.6282 9.16519 36.6073 9.11922 36.7218 9.20747C36.8589 9.31315 37.0347 9.48602 37.3573 9.80867L38.0645 9.10156L38.7716 8.39446C38.4863 8.1092 38.206 7.82633 37.9428 7.62346C37.657 7.40316 37.2916 7.19581 36.8174 7.17214L36.7676 8.1709ZM38.0645 9.10156L37.3573 9.80867L40.6904 13.1417L41.3975 12.4346L42.1046 11.7275L38.7716 8.39446L38.0645 9.10156ZM41.3975 12.4346L40.6904 13.1417C41.0132 13.4645 41.1864 13.6406 41.2923 13.7779C41.3809 13.8929 41.3348 13.872 41.3303 13.7822L42.3291 13.7324L43.3279 13.6826C43.3042 13.208 43.0964 12.8424 42.8761 12.5566C42.6731 12.2933 42.39 12.0129 42.1046 11.7275L41.3975 12.4346ZM42.3291 13.7324L41.3303 13.7819C41.3259 13.692 41.3698 13.6663 41.2931 13.7892C41.2013 13.9364 41.0466 14.1284 40.7573 14.4819L41.5312 15.1152L42.3052 15.7485C42.5605 15.4365 42.8142 15.1295 42.99 14.8479C43.1809 14.5419 43.3514 14.1576 43.3279 13.6829L42.3291 13.7324ZM41.5312 15.1152L40.7573 14.482L38.7416 16.9459L39.5156 17.5791L40.2896 18.2123L42.3052 15.7484L41.5312 15.1152ZM39.5156 17.5791L38.7417 16.9458C38.2434 17.5548 37.7947 18.0989 37.5162 18.5643C37.2371 19.0309 36.9596 19.6937 37.2606 20.4207L38.1846 20.0381L39.1085 19.6555C39.1806 19.8296 39.0488 19.8983 39.2325 19.5911C39.4169 19.2829 39.7482 18.874 40.2895 18.2124L39.5156 17.5791ZM38.1846 20.0381L37.2607 20.4207C37.5617 21.1476 38.2265 21.4202 38.7538 21.5528C39.2798 21.6851 39.9818 21.7526 40.7647 21.831L40.8643 20.8359L40.9638 19.8409C40.1132 19.7558 39.5898 19.7008 39.2416 19.6132C38.8946 19.526 39.0364 19.4814 39.1085 19.6554L38.1846 20.0381ZM40.8643 20.8359L40.7646 21.831L43.9325 22.1483L44.0322 21.1533L44.1319 20.1583L40.9639 19.8409L40.8643 20.8359ZM44.0322 21.1533L43.9327 22.1484C44.3872 22.1938 44.6324 22.2203 44.8013 22.2595C44.9422 22.2922 44.8931 22.3051 44.8328 22.2384L45.5742 21.5674L46.3157 20.8964C45.9968 20.544 45.6046 20.3927 45.2531 20.3112C44.9296 20.2361 44.533 20.1984 44.1318 20.1583L44.0322 21.1533ZM45.5742 21.5674L44.8326 22.2382C44.7725 22.1718 44.7902 22.1245 44.8088 22.2679C44.831 22.4396 44.833 22.6861 44.833 23.1426L45.833 23.1426L46.833 23.1426C46.833 22.7392 46.8349 22.341 46.7923 22.0115C46.746 21.6536 46.6343 21.2486 46.3158 20.8965L45.5742 21.5674ZM45.833 23.1426H44.833V27.8564H45.833H46.833V23.1426H45.833ZM45.833 27.8564H44.833C44.833 28.3131 44.831 28.5599 44.8088 28.7319C44.7902 28.8757 44.7724 28.8283 44.8327 28.7617L45.5742 29.4326L46.3157 30.1035C46.6345 29.7512 46.7461 29.3458 46.7923 28.988C46.8349 28.6584 46.833 28.26 46.833 27.8564H45.833ZM45.5742 29.4326L44.8328 28.7616C44.8931 28.695 44.9421 28.7079 44.8012 28.7406C44.6324 28.7797 44.3872 28.8062 43.9328 28.8516L44.0322 29.8467L44.1317 30.8417C44.533 30.8016 44.9295 30.7639 45.2532 30.6888C45.6046 30.6073 45.9968 30.4559 46.3156 30.1037L45.5742 29.4326ZM44.0322 29.8467L43.9328 28.8516L40.7658 29.168L40.8652 30.1631L40.9646 31.1581L44.1316 30.8417L44.0322 29.8467ZM40.8652 30.1631L40.7658 29.168C39.9827 29.2463 39.2808 29.3139 38.7548 29.4462C38.2275 29.5789 37.5631 29.8516 37.2619 30.5778L38.1855 30.9609L39.1092 31.3441C39.0372 31.5178 38.896 31.4731 39.2428 31.3858C39.591 31.2982 40.1143 31.2431 40.9647 31.1581L40.8652 30.1631ZM38.1855 30.9609L37.2617 30.5782C36.9608 31.3047 37.2374 31.9673 37.5164 32.4343C37.7947 32.8999 38.2433 33.4441 38.7417 34.0532L39.5156 33.4199L40.2895 32.7866C39.7483 32.1252 39.4173 31.7162 39.2332 31.4083C39.0499 31.1016 39.1813 31.17 39.1094 31.3436L38.1855 30.9609ZM39.5156 33.4199L38.7416 34.0531L40.7573 36.517L41.5312 35.8838L42.3052 35.2506L40.2896 32.7867L39.5156 33.4199ZM41.5312 35.8838L40.7573 36.5171C41.0466 36.8706 41.2013 37.0627 41.2931 37.2098C41.3698 37.3327 41.3259 37.307 41.3303 37.2171L42.3291 37.2666L43.3279 37.3161C43.3514 36.8414 43.1809 36.4571 42.99 36.1512C42.8142 35.8695 42.5605 35.5625 42.3052 35.2505L41.5312 35.8838ZM42.3291 37.2666L41.3303 37.2168C41.3348 37.127 41.3809 37.1062 41.2923 37.2211C41.1864 37.3584 41.0132 37.5345 40.6904 37.8573L41.3975 38.5645L42.1046 39.2716C42.39 38.9861 42.6731 38.7057 42.8761 38.4424C43.0964 38.1567 43.3042 37.791 43.3279 37.3164L42.3291 37.2666ZM41.3975 38.5645L40.6904 37.8573L37.3583 41.1894L38.0654 41.8965L38.7725 42.6036L42.1046 39.2716L41.3975 38.5645ZM38.0654 41.8965L37.3583 41.1894C37.0355 41.5122 36.8594 41.6854 36.7221 41.7913C36.6071 41.8799 36.628 41.8338 36.7178 41.8294L36.7676 42.8281L36.8174 43.8269C37.292 43.8032 37.6577 43.5954 37.9434 43.3751C38.2067 43.1721 38.4871 42.889 38.7725 42.6036L38.0654 41.8965ZM36.7676 42.8281L36.718 41.8294C36.808 41.8249 36.8337 41.8688 36.7108 41.7922C36.5637 41.7003 36.3716 41.5456 36.018 41.2563L35.3848 42.0303L34.7515 42.8042C35.0635 43.0595 35.3705 43.3132 35.6521 43.489C35.9581 43.6799 36.3424 43.8505 36.8172 43.8269L36.7676 42.8281ZM35.3848 42.0303L36.0178 41.2562L33.553 39.2405L32.9199 40.0146L32.2869 40.7888L34.7517 42.8044L35.3848 42.0303ZM32.9199 40.0146L33.5532 39.2407C32.9442 38.7424 32.4 38.2937 31.9347 38.0152C31.4682 37.7361 30.8052 37.4585 30.0782 37.7597L30.4609 38.6836L30.8437 39.6075C30.6695 39.6796 30.6007 39.5477 30.9078 39.7315C31.216 39.9159 31.625 40.2472 32.2867 40.7886L32.9199 40.0146ZM30.4609 38.6836L30.0781 37.7598C29.3515 38.0608 29.0788 38.7255 28.9461 39.2528C28.8138 39.7788 28.7463 40.4808 28.668 41.2639L29.6631 41.3633L30.6581 41.4627C30.7431 40.6122 30.7981 40.0889 30.8857 39.7407C30.973 39.3939 31.0176 39.5354 30.8437 39.6074L30.4609 38.6836ZM29.6631 41.3633L28.668 41.2639L28.3516 44.4329L29.3467 44.5322L30.3417 44.6316L30.6581 41.4626L29.6631 41.3633ZM29.3467 44.5322L28.3516 44.4328C28.3062 44.8872 28.2797 45.1324 28.2406 45.3012C28.2079 45.4421 28.195 45.3931 28.2616 45.3328L28.9326 46.0742L29.6037 46.8156C29.9559 46.4968 30.1073 46.1047 30.1888 45.7532C30.2639 45.4295 30.3016 45.033 30.3417 44.6316L29.3467 44.5322ZM28.9326 46.0742L28.2617 45.3327C28.3283 45.2724 28.3757 45.2902 28.2319 45.3088C28.0599 45.331 27.8131 45.333 27.3564 45.333V46.333V47.333C27.76 47.333 28.1584 47.3349 28.488 47.2923C28.8458 47.2461 29.2512 47.1345 29.6035 46.8157L28.9326 46.0742ZM27.3564 46.333V45.333H22.6426V46.333V47.333H27.3564V46.333ZM22.6426 46.333L22.6426 45.333C22.1861 45.333 21.9396 45.331 21.7679 45.3088C21.6245 45.2902 21.6718 45.2725 21.7382 45.3326L21.0674 46.0742L20.3965 46.8158C20.7486 47.1343 21.1536 47.246 21.5115 47.2923C21.841 47.3349 22.2392 47.333 22.6426 47.333L22.6426 46.333ZM21.0674 46.0742L21.7384 45.3328C21.8051 45.3931 21.7922 45.4422 21.7595 45.3013C21.7203 45.1324 21.6938 44.8872 21.6484 44.4327L20.6533 44.5322L19.6583 44.6318C19.6984 45.033 19.7361 45.4296 19.8112 45.7531C19.8927 46.1046 20.044 46.4968 20.3964 46.8157L21.0674 46.0742ZM20.6533 44.5322L21.6483 44.4325L21.331 41.2646L20.3359 41.3643L19.3409 41.4639L19.6583 44.6319L20.6533 44.5322ZM20.3359 41.3643L21.331 41.2647C21.2526 40.4818 21.1851 39.7798 21.0528 39.2538C20.9202 38.7265 20.6476 38.0617 19.9207 37.7607L19.5381 38.6846L19.1554 39.6085C18.9814 39.5364 19.026 39.3946 19.1132 39.7416C19.2008 40.0898 19.2558 40.6132 19.3409 41.4638L20.3359 41.3643ZM19.5381 38.6846L19.9207 37.7606C19.1937 37.4596 18.5309 37.7371 18.0643 38.0162C17.5989 38.2947 17.0548 38.7434 16.4458 39.2417L17.0791 40.0156L17.7124 40.7895C18.374 40.2482 18.7829 39.9169 19.0911 39.7325C19.3983 39.5488 19.3296 39.6806 19.1555 39.6085L19.5381 38.6846ZM17.0791 40.0156L16.4459 39.2416L13.982 41.2573L14.6152 42.0312L15.2484 42.8052L17.7123 40.7896L17.0791 40.0156ZM14.6152 42.0312L13.9819 41.2573C13.6284 41.5466 13.4364 41.7013 13.2892 41.7931C13.1663 41.8698 13.192 41.8259 13.2819 41.8303L13.2324 42.8291L13.1829 43.8279C13.6576 43.8514 14.0419 43.6809 14.3479 43.49C14.6295 43.3142 14.9365 43.0605 15.2485 42.8052L14.6152 42.0312ZM13.2324 42.8291L13.2822 41.8303C13.372 41.8348 13.3929 41.8809 13.2779 41.7923C13.1406 41.6864 12.9645 41.5132 12.6417 41.1904L11.9346 41.8975L11.2275 42.6046C11.5129 42.89 11.7933 43.1731 12.0566 43.3761C12.3424 43.5964 12.708 43.8042 13.1826 43.8279L13.2324 42.8291ZM11.9346 41.8975L12.6417 41.1904L9.30867 37.8573L8.60156 38.5645L7.89446 39.2716L11.2275 42.6046L11.9346 41.8975ZM8.60156 38.5645L9.30867 37.8573C8.98602 37.5347 8.81315 37.3589 8.70747 37.2218C8.61922 37.1073 8.66519 37.1282 8.66965 37.2177L7.6709 37.2676L6.67214 37.3174C6.69582 37.7916 6.90316 38.157 7.12346 38.4428C7.32633 38.706 7.60919 38.9863 7.89446 39.2716L8.60156 38.5645ZM7.6709 37.2676L8.66967 37.2179C8.67411 37.3074 8.63046 37.3328 8.70688 37.2101C8.7984 37.0632 8.95289 36.8711 9.24179 36.5179L8.46777 35.8848L7.69376 35.2516C7.43839 35.5638 7.18488 35.8708 7.00925 36.1527C6.81852 36.459 6.64857 36.8431 6.67213 37.3172L7.6709 37.2676ZM8.46777 35.8848L9.24174 36.518L11.2583 34.0531L10.4844 33.4199L9.7104 32.7867L7.6938 35.2515L8.46777 35.8848ZM10.4844 33.4199L11.2584 34.0531C11.7566 33.444 12.2051 32.8999 12.4834 32.4343C12.7624 31.9676 13.0394 31.3048 12.7383 30.5782L11.8145 30.9609L10.8906 31.3437C10.8186 31.1698 10.9502 31.1013 10.7667 31.4082C10.5826 31.7163 10.2515 32.1252 9.71036 32.7868L10.4844 33.4199ZM11.8145 30.9609L12.7383 30.5781C12.4371 29.8515 11.7725 29.5788 11.2452 29.4462C10.7192 29.3138 10.0172 29.2463 9.2342 29.168L9.13477 30.1631L9.03533 31.1581C9.88575 31.2431 10.4091 31.2981 10.7573 31.3857C11.1042 31.473 10.9627 31.5177 10.8906 31.3438L11.8145 30.9609ZM9.13477 30.1631L9.23418 29.168L6.06719 28.8516L5.96777 29.8467L5.86836 30.8417L9.03535 31.1581L9.13477 30.1631ZM5.96777 29.8467L6.06721 28.8516C5.61282 28.8062 5.36762 28.7797 5.19881 28.7406C5.05786 28.7079 5.1069 28.695 5.16721 28.7616L4.42578 29.4326L3.68435 30.1036C4.00319 30.4559 4.39536 30.6073 4.74684 30.6888C5.07045 30.7639 5.46699 30.8016 5.86834 30.8417L5.96777 29.8467ZM4.42578 29.4326L5.16731 28.7617C5.2276 28.8283 5.20979 28.8757 5.19122 28.7319C5.16901 28.5599 5.16699 28.3131 5.16699 27.8564H4.16699H3.16699C3.16699 28.26 3.16512 28.6584 3.20769 28.988C3.25389 29.3458 3.36547 29.7512 3.68425 30.1035L4.42578 29.4326ZM4.16699 27.8564H5.16699V23.1426H4.16699H3.16699V27.8564H4.16699ZM4.16699 23.1426L5.16699 23.1426C5.16699 22.6861 5.16903 22.4396 5.19123 22.2679C5.20977 22.1245 5.22749 22.1718 5.16736 22.2382L4.42578 21.5674L3.6842 20.8965C3.36566 21.2486 3.25399 21.6536 3.20773 22.0115C3.16514 22.341 3.16699 22.7392 3.16699 23.1426L4.16699 23.1426ZM4.42578 21.5674L5.16724 22.2384C5.10688 22.3051 5.05776 22.2922 5.19875 22.2595C5.36762 22.2203 5.61281 22.1938 6.06731 22.1484L5.96777 21.1533L5.86824 20.1583C5.46696 20.1984 5.07042 20.2361 4.74686 20.3112C4.39543 20.3927 4.0032 20.544 3.68432 20.8964L4.42578 21.5674ZM5.96777 21.1533L6.06746 22.1483L9.23543 21.831L9.13574 20.8359L9.03606 19.8409L5.86809 20.1583L5.96777 21.1533ZM9.13574 20.8359L9.23528 21.831C10.0182 21.7527 10.7202 21.6851 11.2462 21.5528C11.7734 21.4202 12.4382 21.1476 12.7393 20.4208L11.8154 20.0381L10.8915 19.6554C10.9636 19.4813 11.1054 19.526 10.7584 19.6132C10.4101 19.7008 9.88676 19.7558 9.03621 19.8409L9.13574 20.8359ZM11.8154 20.0381L12.7393 20.4207C13.0402 19.6942 12.7634 19.0315 12.4844 18.5647C12.2061 18.0991 11.7576 17.5549 11.2593 16.9459L10.4854 17.5791L9.71139 18.2123C10.2526 18.8738 10.5836 19.2827 10.7677 19.5908C10.9511 19.8976 10.8196 19.8292 10.8915 19.6554L11.8154 20.0381ZM10.4854 17.5791L11.2593 16.9459L9.24272 14.481L8.46875 15.1143L7.69478 15.7475L9.71138 18.2123L10.4854 17.5791ZM8.46875 15.1143L9.24271 14.481C8.9534 14.1274 8.79869 13.9354 8.70686 13.7882C8.63018 13.6653 8.67414 13.691 8.66967 13.781L7.6709 13.7314L6.67213 13.6819C6.64856 14.1566 6.81917 14.541 7.01005 14.8469C7.18578 15.1285 7.43954 15.4355 7.69479 15.7475L8.46875 15.1143ZM7.6709 13.7314L8.66966 13.7813C8.66518 13.871 8.61909 13.8919 8.70772 13.777C8.81365 13.6396 8.98681 13.4635 9.30965 13.1407L8.60254 12.4336L7.89543 11.7265C7.61002 12.0119 7.32695 12.2924 7.12393 12.5556C6.9036 12.8414 6.69581 13.207 6.67214 13.6816L7.6709 13.7314ZM8.60254 12.4336L9.30965 13.1407L12.6417 9.80867L11.9346 9.10156L11.2275 8.39446L7.89543 11.7265L8.60254 12.4336ZM11.9346 9.10156L12.6417 9.80867C12.9645 9.4858 13.1406 9.31265 13.2779 9.20672C13.3929 9.11811 13.372 9.16421 13.2822 9.16868L13.2324 8.16992L13.1826 7.17116C12.708 7.19482 12.3424 7.40259 12.0566 7.62294C11.7933 7.82596 11.5129 8.10904 11.2275 8.39446L11.9346 9.10156ZM13.2324 8.16992L13.2819 9.16869C13.192 9.17316 13.1663 9.12923 13.2892 9.2059C13.4364 9.2977 13.6284 9.45241 13.9819 9.74169L14.6152 8.96777L15.2485 8.19386C14.9365 7.93856 14.6295 7.6848 14.3479 7.50905C14.0419 7.31817 13.6576 7.14761 13.1829 7.17115L13.2324 8.16992ZM14.6152 8.96777L13.982 9.74177L16.4459 11.7574L17.0791 10.9834L17.7123 10.2094L15.2484 8.19378L14.6152 8.96777ZM17.0791 10.9834L16.4458 11.7573C17.0548 12.2556 17.5989 12.7043 18.0643 12.9828C18.5308 13.2619 19.1937 13.5394 19.9206 13.2384L19.5381 12.3145L19.1555 11.3905C19.3296 11.3184 19.3983 11.4502 19.0911 11.2665C18.7829 11.0821 18.3739 10.7508 17.7124 10.2095L17.0791 10.9834ZM19.5381 12.3145L19.9207 13.2384C20.6476 12.9373 20.9202 12.2725 21.0528 11.7452C21.1851 11.2193 21.2526 10.5173 21.331 9.73431L20.3359 9.63477L19.3409 9.53522C19.2558 10.3858 19.2008 10.9092 19.1132 11.2574C19.026 11.6044 18.9814 11.4626 19.1555 11.3906L19.5381 12.3145ZM20.3359 9.63477L21.331 9.73448L21.6483 6.56749L20.6533 6.46777L19.6583 6.36806L19.3409 9.53505L20.3359 9.63477ZM20.6533 6.46777L21.6484 6.56732C21.6938 6.11281 21.7203 5.86762 21.7595 5.69874C21.7922 5.55775 21.8051 5.60688 21.7384 5.66725L21.0674 4.92578L20.3964 4.18431C20.044 4.5032 19.8927 4.89544 19.8112 5.24687C19.7361 5.57041 19.6984 5.96695 19.6583 6.36823L20.6533 6.46777ZM21.0674 4.92578L21.7382 5.66737C21.6718 5.72749 21.6245 5.70977 21.7679 5.69123C21.9396 5.66903 22.1861 5.66699 22.6426 5.66699L22.6426 4.66699L22.6426 3.66699C22.2392 3.66699 21.8409 3.66514 21.5115 3.70774C21.1536 3.75399 20.7486 3.86566 20.3965 4.18419L21.0674 4.92578ZM22.6426 4.66699V5.66699H27.3564V4.66699V3.66699H22.6426V4.66699ZM25 17.167V16.167C19.8453 16.167 15.667 20.3453 15.667 25.5H16.667H17.667C17.667 21.4499 20.9499 18.167 25 18.167V17.167ZM16.667 25.5L15.667 25.5C15.667 30.6547 19.8453 34.833 25 34.833V33.833V32.833C20.9499 32.833 17.667 29.5501 17.667 25.5L16.667 25.5ZM25 33.833L25 34.833C30.1547 34.833 34.333 30.6547 34.333 25.5L33.333 25.5L32.333 25.5C32.333 29.5501 29.0501 32.833 25 32.833L25 33.833ZM33.333 25.5H34.333C34.333 20.3453 30.1547 16.167 25 16.167L25 17.167L25 18.167C29.0501 18.167 32.333 21.4499 32.333 25.5H33.333Z" fill="#1E1C59"/>
</svg>
