<?xml version="1.0" encoding="UTF-8"?>
<svg id="_圖層_1" data-name="圖層_1" xmlns="http://www.w3.org/2000/svg" version="1.1" viewBox="0 0 50 51">
  <!-- Generator: Adobe Illustrator 29.6.1, SVG Export Plug-In . SVG Version: 2.1.1 Build 9)  -->
  <defs>
    <style>
      .st0 {
        fill: #1e1c59;
      }
    </style>
  </defs>
  <circle class="st0" cx="25" cy="25.5" r="7.33"/>
  <path class="st0" d="M46.79,22.01c-.05-.36-.16-.76-.48-1.11h0c-.32-.35-.71-.5-1.06-.59-.32-.08-.72-.11-1.12-.15l-3.17-.32h0c-.85-.09-1.37-.14-1.72-.23,0,0,0,0-.02,0,0,0,0,0,0-.02.18-.31.52-.72,1.06-1.38h0s2.02-2.46,2.02-2.46c.26-.31.51-.62.68-.9.19-.31.36-.69.34-1.16h0c-.02-.47-.23-.84-.45-1.13-.2-.26-.49-.54-.77-.83l-3.33-3.33c-.29-.29-.57-.57-.83-.77-.29-.22-.65-.43-1.13-.45h0c-.47-.02-.86.15-1.16.34-.28.18-.59.43-.9.68l-2.47,2.02h0c-.66.54-1.07.87-1.38,1.06,0,0,0,0-.02,0,0,0,0,0,0-.02-.09-.35-.14-.87-.23-1.72h0s-.32-3.17-.32-3.17c-.04-.4-.08-.8-.15-1.12-.08-.35-.23-.74-.59-1.06h0c-.35-.32-.76-.43-1.12-.48-.33-.04-.73-.04-1.13-.04h-4.71c-.4,0-.8,0-1.13.04-.36.05-.76.16-1.11.48h0c-.35.32-.5.71-.59,1.06-.08.32-.11.72-.15,1.12l-.32,3.17h0c-.09.85-.14,1.37-.23,1.72,0,0,0,0,0,.02,0,0,0,0-.02,0-.31-.18-.72-.52-1.38-1.06h0s-2.46-2.02-2.46-2.02c-.31-.26-.62-.51-.9-.68-.31-.19-.69-.36-1.16-.34h0c-.47.02-.84.23-1.13.45-.26.2-.54.49-.83.77l-3.33,3.33c-.29.29-.57.57-.77.83-.22.29-.43.65-.45,1.13h0c-.02.48.15.86.34,1.17.18.28.43.59.68.9h0l2.02,2.46c.54.66.87,1.07,1.06,1.38,0,0,0,0,0,.02,0,0,0,0-.02,0-.35.09-.87.14-1.72.23h0l-3.17.32c-.4.04-.8.08-1.12.15-.35.08-.74.23-1.06.59h0c-.32.35-.43.76-.48,1.12-.04.33-.04.73-.04,1.13v4.71c0,.4,0,.8.04,1.13.05.36.16.76.48,1.12h0c.32.35.71.5,1.06.59.32.08.72.11,1.12.15l3.17.32c.85.09,1.37.14,1.72.23,0,0,.01,0,.02,0,0,0,0,0,0,.02-.18.31-.52.72-1.06,1.38h0s-2.02,2.46-2.02,2.46h0c-.26.31-.51.62-.68.9-.19.31-.36.69-.34,1.16h0c.02.47.23.84.45,1.13.2.26.49.54.77.83l3.33,3.33c.29.29.57.57.83.77.29.22.65.43,1.13.45h0c.47.02.86-.15,1.16-.34.28-.18.59-.43.9-.68l2.46-2.02h0c.66-.54,1.07-.87,1.38-1.06,0,0,0,0,.02,0,0,0,0,0,0,.02.09.35.14.87.23,1.72h0s.32,3.17.32,3.17c.04.4.08.8.15,1.12.08.35.23.74.59,1.06h0c.35.32.76.43,1.11.48.33.04.73.04,1.13.04h4.71c.4,0,.8,0,1.13-.04.36-.05.76-.16,1.12-.48h0c.35-.32.5-.71.59-1.06.08-.32.11-.72.15-1.12l.32-3.17c.09-.85.14-1.37.23-1.72,0,0,0,0,0-.02,0,0,0,0,.02,0,.31.18.72.52,1.38,1.06h0s2.46,2.02,2.46,2.02c.31.26.62.51.9.68.31.19.69.36,1.17.34h0c.47-.02.84-.23,1.13-.45.26-.2.54-.49.83-.77l3.33-3.33c.29-.29.57-.57.77-.83.22-.29.43-.65.45-1.13h0c.02-.47-.15-.86-.34-1.17-.18-.28-.43-.59-.68-.9h0s-2.02-2.46-2.02-2.46h0c-.54-.66-.87-1.07-1.06-1.38,0,0,0,0,0-.02,0,0,0,0,.02,0,.35-.09.87-.14,1.72-.23l3.17-.32h0c.4-.04.8-.08,1.12-.15.35-.08.74-.23,1.06-.59h0c.32-.35.43-.76.48-1.12.04-.33.04-.73.04-1.13v-4.71c0-.4,0-.8-.04-1.13ZM34.33,25.5c0,5.15-4.18,9.33-9.33,9.33s-9.33-4.18-9.33-9.33,4.18-9.33,9.33-9.33,9.33,4.18,9.33,9.33Z"/>
</svg>